<?xml version="1.0" encoding="UTF-8" standalone="no"?>
<svg width="1440px" height="2136px" viewBox="0 0 1440 2136" version="1.1" xmlns="http://www.w3.org/2000/svg" xmlns:xlink="http://www.w3.org/1999/xlink" xmlns:sketch="http://www.bohemiancoding.com/sketch/ns">
    <!-- Generator: Sketch 3.5.1 (25234) - http://www.bohemiancoding.com/sketch -->
    <title>Background Pattern</title>
    <desc>Created with Sketch.</desc>
    <defs></defs>
    <g id="Final-Mocks" stroke="none" stroke-width="1" fill="none" fill-rule="evenodd" sketch:type="MSPage">
        <g id="Home-Page" sketch:type="MSArtboardGroup" stroke="#4B4B4B">
            <g id="Background-Pattern" sketch:type="MSLayerGroup" transform="translate(-752.000000, -430.000000)">
                <path d="M1283.78973,1392.40138 C1278.1115,1406.48825 1273.95276,1421.35077 1271.51654,1436.78589 M1269,1469 C1269,1478.11759 1269.59523,1487.09615 1270.74894,1495.89896 L1270.74894,1495.89896 M1284.1586,1546.5074 C1289.44678,1559.44653 1296.01935,1571.72443 1303.71784,1583.18264 M1337.57292,1622.01471 C1353.05947,1635.83215 1370.65694,1647.33359 1389.82145,1655.97515 M1425.94402,1668.33621 C1441.35815,1672.03883 1457.45004,1674 1474,1674 M1513.82925,1670.13334 C1537.0671,1665.55779 1558.89553,1657.0555 1578.59476,1645.34626 M1602.43344,1628.78989 C1629.61685,1606.91296 1651.10128,1578.24186 1664.30826,1545.35505 M1679,1469 C1679,1445.27767 1674.97063,1422.49645 1667.55898,1401.30341 M1653.84682,1370.5324 C1650.50288,1364.4378 1646.85817,1358.53165 1642.93265,1352.83391 M1584.49276,1296.29585 C1575.65266,1290.62838 1566.34882,1285.62107 1556.65079,1281.34349 M1482.89043,1264.18931 C1479.94265,1264.06353 1476.97874,1264 1474,1264 M1360.72193,1298.11355 C1337.66072,1313.43113 1317.87837,1333.29223 1302.65238,1356.41932" id="Oval-61" sketch:type="MSShapeGroup" transform="translate(1474.000000, 1469.000000) rotate(-27.000000) translate(-1474.000000, -1469.000000) "></path>
                <path d="M1239.99239,1386.6716 C1237.20633,1394.5908 1234.8109,1402.69403 1232.82921,1410.95817 M1229.73042,1425.90861 C1227.27852,1439.90369 1226,1454.30254 1226,1469 M1227.46383,1496.10162 L1227.46383,1496.10162 C1229.43085,1514.19978 1233.34502,1531.71341 1238.99249,1548.42866 M1253.8407,1583.27725 C1257.62804,1590.55884 1261.76603,1597.62888 1266.23228,1604.46498 M1286.58781,1631.42718 C1296.34429,1642.67466 1307.09642,1653.03508 1318.70707,1662.37132 M1351.69045,1684.79104 C1369.42872,1694.86668 1388.53122,1702.81831 1408.65207,1708.30006 M1474,1717 C1492.93909,1717 1511.38234,1714.87704 1529.10475,1710.8561 M1547.6275,1705.88774 C1578.17526,1696.40352 1606.19372,1681.17313 1630.41904,1661.4604 M1655.45405,1638.05297 C1662.01846,1631.01011 1668.17773,1623.58464 1673.89474,1615.8137 M1696.7641,1578.12302 C1708.25385,1554.712 1716.16181,1529.22464 1719.77343,1502.37546 M1722,1469 C1722,1456.50352 1721.07573,1444.22292 1719.29182,1432.22283 M1702.72739,1372.9806 C1699.93764,1366.3431 1696.8674,1359.85254 1693.5315,1353.52376 M1662.88912,1308.29117 C1658.13247,1302.70587 1653.13248,1297.33419 1647.90554,1292.1925 M1628.28407,1274.82175 C1612.10515,1261.94968 1594.281,1251.05708 1575.17798,1242.51033 M1520.71536,1225.39322 C1505.58602,1222.50937 1489.96928,1221 1474,1221 M1431.55242,1224.6185 C1409.07022,1228.49607 1387.62401,1235.4005 1367.64855,1244.89703 M1332.91617,1265.01354 C1322.51961,1272.21775 1312.70036,1280.19632 1303.54187,1288.86584" id="Oval-61-Copy-28" sketch:type="MSShapeGroup" transform="translate(1474.000000, 1469.000000) rotate(-37.000000) translate(-1474.000000, -1469.000000) "></path>
                <path d="M1371.23201,1318.32411 C1355.37124,1329.07463 1341.29192,1342.25566 1329.52901,1357.33222 M1301.77766,1407.5659 C1294.80209,1426.90351 1291,1447.75774 1291,1469.5 M1294.1541,1503.46111 L1294.1541,1503.46111 C1296.17603,1514.2047 1299.13946,1524.61599 1302.95543,1534.60598 M1346.1347,1600.20717 C1353.71622,1607.59605 1361.93824,1614.33086 1370.70959,1620.32047 M1473.5,1652 C1490.06468,1652 1506.11391,1649.79312 1521.36972,1645.65734 M1575.71915,1620.70898 C1601.85418,1603.00681 1623.156,1578.70695 1637.23281,1550.20119 M1655.43532,1483.9627 C1655.80942,1479.19102 1656,1474.36776 1656,1469.5 M1643.45481,1402.87071 C1637.05801,1386.56667 1628.38287,1371.40668 1617.82123,1357.78257 M1582.92945,1323.43367 C1563.80442,1309.08271 1541.76877,1298.4002 1517.86686,1292.43053 M1473.5,1287 C1461.45571,1287 1449.68393,1288.16674 1438.29152,1290.39337" id="Oval-61-Copy-7" sketch:type="MSShapeGroup" transform="translate(1473.500000, 1469.500000) rotate(-13.000000) translate(-1473.500000, -1469.500000) "></path>
                <path d="M1348.43698,1372.78745 C1342.49971,1380.38436 1337.24228,1388.53835 1332.75618,1397.1579 M1315,1470 C1315,1475.85491 1315.31846,1481.63545 1315.93901,1487.32522 L1315.93901,1487.32522 M1323.94266,1522.53112 C1334.16824,1551.54658 1352.62616,1576.67967 1376.51179,1595.12576 M1456.0571,1627.10221 C1461.62345,1627.69564 1467.27618,1628 1473,1628 M1537.46455,1614.29387 C1553.42754,1607.1514 1567.98878,1597.43779 1580.62155,1585.67975 M1617.8301,1533.25242 C1623.40141,1520.5137 1627.34132,1506.89852 1629.38566,1492.67104 M1631,1470 C1631,1444.54473 1624.98031,1420.49543 1614.28681,1399.19799 M1596.82221,1371.8469 C1580.53651,1351.32973 1559.25918,1334.95365 1534.82592,1324.5544 M1473,1312 C1447.90331,1312 1424.17327,1317.85129 1403.09967,1328.26406" id="Oval-61-Copy-27" sketch:type="MSShapeGroup" transform="translate(1473.000000, 1470.000000) rotate(292.000000) translate(-1473.000000, -1470.000000) "></path>
                <path d="M1422.54901,1357.78961 C1387.82267,1373.42721 1361.66225,1404.7115 1353.04916,1442.66106 M1350,1470 C1350,1499.26538 1360.22066,1526.1436 1377.28724,1547.25991 L1377.28724,1547.25991 M1416.42576,1579.24573 C1433.36212,1588.03429 1452.60116,1593 1473,1593 M1511.32948,1586.91038 C1529.49587,1580.95813 1545.79779,1570.88968 1559.13268,1557.80758 M1587.7831,1514.29434 C1593.09015,1500.55096 1596,1485.6153 1596,1470 M1595.84365,1463.74375 C1595.36129,1454.11565 1593.77184,1444.77923 1591.19999,1435.85922 M1530.84536,1361.42335 C1513.60308,1352.21816 1493.91092,1347 1473,1347" id="Oval-61-Copy-8" sketch:type="MSShapeGroup" transform="translate(1473.000000, 1470.000000) rotate(274.000000) translate(-1473.000000, -1470.000000) "></path>
                <path d="M1397.34698,1455.58532 C1396.46269,1460.25476 1396,1465.07335 1396,1470 M1401.93066,1499.68564 L1401.93066,1499.68564 C1410.99488,1521.3606 1429.68564,1538.00843 1452.65844,1544.2846 M1473,1547 C1479.99521,1547 1486.77256,1546.0672 1493.21444,1544.31921 M1525.56595,1526.26601 C1533.65915,1518.70182 1540.11905,1509.41196 1544.3591,1498.98296 M1550,1470 C1550,1462.89002 1549.03634,1456.00511 1547.23252,1449.46876 M1516.93265,1406.75466 C1506.56424,1399.53883 1494.33743,1394.80735 1481.11447,1393.42247 M1442.67009,1399.20355 C1433.85638,1402.98439 1425.89052,1408.36294 1419.13687,1414.97484" id="Oval-61-Copy-9" sketch:type="MSShapeGroup" transform="translate(1473.000000, 1470.211234) rotate(-18.000000) translate(-1473.000000, -1470.211234) "></path>
                <path d="M1382,1470.5 C1382,1480.98824 1383.78415,1491.05977 1387.06552,1500.42764 L1387.06552,1500.42764 M1392.83596,1513.47732 C1403.38088,1532.98257 1420.88027,1548.17644 1442.01096,1555.73574 M1472.5,1561 C1482.89568,1561 1492.88197,1559.2472 1502.17946,1556.02101 M1531.18615,1539.39488 C1543.7434,1528.68801 1553.33735,1514.60851 1558.5664,1498.55799 M1563,1470.5 C1563,1465.57267 1562.60622,1460.73731 1561.84842,1456.02367 M1551.87999,1427.00136 C1544.40823,1413.39521 1533.54004,1401.91822 1520.41692,1393.71188 M1446.95581,1383.6552 C1427.08468,1389.4906 1410.05172,1401.96068 1398.41924,1418.50314" id="Oval-61-Copy-25" sketch:type="MSShapeGroup" transform="translate(1472.500000, 1472.327599) rotate(-27.000000) translate(-1472.500000, -1472.327599) "></path>
                <path d="M1379.53678,1432.84508 C1374.67975,1444.60251 1372,1457.48831 1372,1471 M1379.87783,1509.97019 L1379.87783,1509.97019 C1386.43341,1525.4478 1396.77568,1538.93206 1409.74284,1549.26119 M1448.26401,1568.16607 C1455.87241,1570.01821 1463.82155,1571 1472,1571 M1513.41021,1562.0499 C1535.46284,1552.00407 1553.22613,1534.18203 1563.19612,1512.0877 M1572,1471 C1572,1459.6564 1570.11124,1448.75394 1566.63104,1438.58996 M1548.44428,1406.52745 C1536.22178,1392.05018 1519.96137,1381.09257 1501.40008,1375.39168 M1444.81696,1374.7389 C1433.05203,1378.05452 1422.16674,1383.46889 1412.59082,1390.55228" id="Oval-61-Copy-26" sketch:type="MSShapeGroup" transform="translate(1472.000000, 1472.869452) rotate(-30.000000) translate(-1472.000000, -1472.869452) "></path>
                <path d="M1430.52217,1463.81862 C1430.17847,1465.99523 1430,1468.22677 1430,1470.5 M1436.08619,1492.42768 L1436.08619,1492.42768 C1439.62163,1498.28616 1444.53093,1503.22222 1450.36783,1506.78962 M1472.5,1513 C1478.60839,1513 1484.4158,1511.71133 1489.66518,1509.39104 M1507.51284,1494.59741 C1512.235,1487.7493 1515,1479.44755 1515,1470.5 M1505.70166,1443.96637 C1501.24819,1438.40099 1495.42449,1433.97973 1488.74186,1431.21389 M1472.5,1428 C1461.55096,1428 1451.56896,1432.14037 1444.03426,1438.94083" id="Oval-61-Copy-10" sketch:type="MSShapeGroup" transform="translate(1472.500000, 1470.500000) rotate(-44.000000) translate(-1472.500000, -1470.500000) "></path>
                <path d="M1441.31773,1454.1461 C1438.56568,1459.14551 1437,1464.88991 1437,1471 M1445.21554,1493.53104 L1445.21554,1493.53104 C1451.63588,1501.15552 1461.25219,1506 1472,1506 M1492.33455,1499.49028 C1498.67994,1494.95325 1503.4462,1488.3491 1505.6494,1480.66178 M1507,1471 C1507,1465.28304 1505.62931,1459.88622 1503.19865,1455.12025 M1472,1436 C1467.17408,1436 1462.57628,1436.97672 1458.3935,1438.74326" id="Oval-61-Copy-14" sketch:type="MSShapeGroup" transform="translate(1472.000000, 1471.000000) rotate(276.000000) translate(-1472.000000, -1471.000000) "></path>
                <path d="M1472,1491 C1477.73642,1491 1482.90877,1488.58494 1486.55577,1484.71611 M1482.56597,1454.01564 C1479.50005,1452.10429 1475.87898,1451 1472,1451 M1452,1471 C1452,1476.23469 1454.01107,1480.99967 1457.30275,1484.56447 L1457.30275,1484.56447" id="Oval-61-Copy-24" sketch:type="MSShapeGroup" transform="translate(1469.277885, 1471.000000) rotate(308.000000) translate(-1469.277885, -1471.000000) "></path>
                <path d="M1201.00929,1352.42712 C1194.85822,1366.72494 1189.79955,1381.60351 1185.93835,1396.95774 M1178.64003,1438.12778 C1177.55587,1448.43698 1177,1458.90358 1177,1469.5 M1180.54014,1515.4568 L1180.54014,1515.4568 C1184.42596,1540.42882 1191.42821,1564.36951 1201.13676,1586.86872 M1214.01863,1613.07542 C1221.39593,1626.37986 1229.76676,1639.05715 1239.03093,1651.0071 M1287.73199,1700.60318 C1301.41149,1711.61321 1316.08892,1721.4336 1331.60719,1729.90726 M1377.15955,1749.99713 C1407.36544,1760.36946 1439.77518,1766 1473.5,1766 M1580.91148,1745.94579 C1614.00663,1733.07768 1644.21927,1714.43794 1670.31331,1691.2627 M1691.09483,1670.90892 C1702.39122,1658.71056 1712.67457,1645.56054 1721.81117,1631.59257 M1759.24218,1548.92443 C1763.57462,1533.30403 1766.66057,1517.16524 1768.38619,1500.62191 M1770,1469.5 C1770,1458.93644 1769.44758,1448.50191 1768.37005,1438.22372 M1760.58516,1395.08887 C1755.6297,1375.91536 1748.80417,1357.49404 1740.31472,1340.03108 M1722.38897,1308.29421 C1714.07854,1295.48987 1704.80684,1283.36712 1694.67612,1272.0282 M1662.00365,1240.62544 C1646.07991,1227.49539 1628.76241,1215.99495 1610.30641,1206.37936 M1581.81478,1193.40714 C1562.18859,1185.70154 1541.54149,1180.02818 1520.13251,1176.64608 M1473.5,1173 C1449.75443,1173 1426.66081,1175.79136 1404.52938,1181.06386 M1319.82403,1215.88274 C1303.56369,1225.75661 1288.32839,1237.15016 1274.31521,1249.8663 M1252.03497,1272.35204 C1244.84738,1280.42044 1238.09408,1288.88417 1231.81176,1297.70656" id="Oval-61" sketch:type="MSShapeGroup" transform="translate(1473.500000, 1469.500000) rotate(20.000000) translate(-1473.500000, -1469.500000) "></path>
                <path d="M1156.64273,1386.93725 C1154.57566,1394.83159 1152.79625,1402.84233 1151.31639,1410.95761 M1146,1470 C1146,1476.287 1146.17743,1482.53256 1146.52754,1488.73195 L1146.52754,1488.73195 M1153.51994,1540.04738 C1156.74225,1554.81202 1160.96202,1569.20386 1166.1051,1583.14877 M1210.05565,1664.42974 C1213.95262,1669.69125 1218.00376,1674.83168 1222.20238,1679.84438 M1265.14882,1722.45379 C1282.20093,1736.50936 1300.70161,1748.87076 1320.39327,1759.28041 M1367.35213,1779.55731 C1384.86099,1785.53122 1403.03846,1790.06142 1421.7426,1793.00599 M1473,1797 C1475.96101,1797 1478.91282,1796.96064 1481.85495,1796.88243 M1559.17158,1785.52675 C1575.17335,1781.16682 1590.68662,1775.62213 1605.61132,1768.99277 M1630.96539,1756.38331 C1645.82116,1748.17157 1659.97004,1738.83748 1673.29767,1728.49545 M1726.15125,1677.00214 C1732.7509,1668.94073 1738.97309,1660.55834 1744.79082,1651.88195 M1773.61634,1598.89384 C1784.66819,1573.15172 1792.5103,1545.70544 1796.63904,1517.0586 M1800,1470 C1800,1462.59931 1799.75415,1455.25604 1799.27017,1447.97792 M1795.49509,1415.5974 C1790.49103,1385.7147 1781.43419,1357.20539 1768.90896,1330.65387 M1744.8811,1288.25276 C1741.92381,1283.83763 1738.86183,1279.49853 1735.6987,1275.23903 M1673.26031,1211.47557 C1650.43827,1193.77126 1625.20892,1179.02219 1598.14641,1167.80248 M1531.423,1148.20406 C1521.90321,1146.48708 1512.24018,1145.18217 1502.45304,1144.30846 M1473,1143 C1457.97716,1143 1443.19094,1144.01305 1428.70592,1145.97457 M1357.80538,1163.86746 C1332.77761,1173.28976 1309.21042,1185.69324 1287.53662,1200.64508 M1238.64339,1241.95153 C1229.77313,1251.0656 1221.42999,1260.69527 1213.66317,1270.79131" id="Oval-61-Copy-29" sketch:type="MSShapeGroup" transform="translate(1473.000000, 1470.000000) rotate(290.000000) translate(-1473.000000, -1470.000000) "></path>
                <path d="M1251.18812,1295.17117 C1248.83165,1298.17205 1246.53463,1301.22183 1244.29884,1304.31873 M1227.64796,1330.24904 C1220.15246,1343.45413 1213.69015,1357.32248 1208.37091,1371.74419 M1201.92295,1391.44002 C1197.08897,1408.28873 1193.78052,1425.7825 1192.1567,1443.76223 M1191,1469.5 C1191,1475.12833 1191.16459,1480.71822 1191.48923,1486.26511 L1191.48923,1486.26511 M1196.46442,1525.07274 C1199.31661,1539.37035 1203.24797,1553.27869 1208.16997,1566.70926 M1224.07127,1602.25213 C1230.33935,1614.00471 1237.41375,1625.26219 1245.22065,1635.95069 M1283.46707,1678.53314 C1313.78807,1706.11429 1350.13382,1727.18824 1390.29756,1739.54823 M1430.73066,1748.78345 C1444.67828,1750.90167 1458.96088,1752 1473.5,1752 M1508.79429,1749.81665 C1525.69161,1747.71069 1542.12556,1744.11245 1557.9601,1739.15797 M1632.27416,1703.19346 C1647.18478,1693.04333 1661.07343,1681.5035 1673.75383,1668.76028 M1725.52605,1597.26284 C1730.64488,1587.1854 1735.17706,1576.75978 1739.07763,1566.03094 M1752.81535,1512.05877 C1754.91269,1498.17798 1756,1483.96597 1756,1469.5 M1755.76253,1457.8101 C1755.21964,1444.47228 1753.75199,1431.37282 1751.42198,1418.57412 M1731.63506,1354.55525 C1720.73715,1330.11836 1706.4711,1307.51382 1689.42681,1287.33156 M1657.83074,1255.4179 C1646.80303,1245.91414 1635.03303,1237.24794 1622.61951,1229.5181 M1585.21514,1209.9489 C1571.94037,1204.22758 1558.13943,1199.49486 1543.90506,1195.84347 M1506.13684,1188.86491 C1495.42864,1187.63308 1484.53825,1187 1473.5,1187 M1466.42051,1187.08697 C1443.25362,1187.6568 1420.77859,1191.01558 1399.31846,1196.84029 M1348.26536,1216.2057 C1338.05624,1221.263 1328.19659,1226.91935 1318.73236,1233.12879 M1313.2323,1236.83023 C1301.45441,1244.95853 1290.324,1253.95802 1279.93416,1263.73562" id="Oval-61-Copy-11" sketch:type="MSShapeGroup" transform="translate(1473.500000, 1469.500000) rotate(309.000000) translate(-1473.500000, -1469.500000) "></path>
                <path d="M1123.40726,1428.08452 C1121.81745,1441.66869 1121,1455.48888 1121,1469.5 M1122.24021,1499.28032 L1122.24021,1499.28032 C1123.75684,1517.41036 1126.6456,1535.15034 1130.8023,1552.39609 M1146.28446,1600.8478 C1154.82215,1622.09729 1165.36973,1642.32284 1177.6919,1661.28913 M1211.20807,1705.00247 C1219.47233,1714.20074 1228.21345,1722.96192 1237.39252,1731.24709 M1277.16897,1762.30723 C1296.97602,1775.61438 1318.20745,1786.96493 1340.58644,1796.08206 M1357.76455,1802.56046 C1376.0466,1808.91251 1395.01299,1813.80177 1414.52363,1817.08814 M1473.5,1822 C1484.92673,1822 1496.22648,1821.4563 1507.37477,1820.39335 M1570.32362,1808.53596 C1599.66022,1800.17375 1627.43531,1788.10664 1653.11072,1772.87282 M1691.02301,1746.89986 C1712.41071,1730.10527 1731.8079,1710.89063 1748.80211,1689.6684 M1783.96691,1636.57693 C1789.11016,1627.03968 1793.82678,1617.23841 1798.09121,1607.19868 M1816.2556,1552.15545 C1819.00827,1540.6994 1821.2015,1529.02558 1822.80479,1517.16451 M1826,1469.5 C1826,1443.88908 1823.26872,1418.91609 1818.08154,1394.85642 M1793.1821,1320.77539 C1786.6155,1306.68454 1779.1447,1293.09998 1770.84428,1280.09629 M1748.94152,1249.50581 C1738.82663,1236.8581 1727.85875,1224.92229 1716.12504,1213.78556 M1695.43062,1195.6183 C1686.0277,1187.98956 1676.22422,1180.83529 1666.05662,1174.19194 M1631.28568,1154.19978 C1626.33024,1151.71508 1621.3081,1149.34378 1616.22267,1147.08926 M1548.80169,1125.06101 C1541.32776,1123.43462 1533.76534,1122.04531 1526.12269,1120.90134 M1473.5,1117 C1455.39428,1117 1437.60739,1118.36505 1420.23662,1120.99784 M1403.31281,1123.98793 C1384.02051,1127.88578 1365.29923,1133.35896 1347.289,1140.26745 M1281.7253,1173.68252 C1263.28935,1185.65885 1246.04306,1199.31185 1230.20255,1214.42543 M1215.98737,1228.78363 C1202.10019,1243.63359 1189.48252,1259.68565 1178.30739,1276.76679 M1154.24211,1319.8685 C1149.77793,1329.37693 1145.72602,1339.11734 1142.10941,1349.06671" id="Oval-61-Copy" sketch:type="MSShapeGroup" transform="translate(1473.500000, 1469.500000) rotate(290.000000) translate(-1473.500000, -1469.500000) "></path>
                <path d="M1140.91472,1253.54608 C1136.5644,1260.23219 1132.41024,1267.05765 1128.46039,1274.0143 M1109.76728,1311.41594 C1099.93169,1334.01511 1092.14056,1357.70921 1086.62743,1382.26469 M1079.10346,1428.40888 C1077.71269,1441.91639 1077,1455.62497 1077,1469.5 M1079.22918,1511.79421 L1079.22918,1511.79421 C1081.12371,1529.66099 1084.20493,1547.17356 1088.39252,1564.25159 M1102.00702,1608.39023 C1106.75506,1621.08431 1112.1351,1633.46993 1118.10885,1645.5088 M1135.341,1676.63614 C1144.26729,1691.17765 1154.10524,1705.09927 1164.77528,1718.32142 M1183.73087,1740.14227 C1196.93612,1754.27477 1211.16311,1767.44043 1226.2941,1779.5215 M1310.53054,1831.067 C1317.60521,1834.26077 1324.7904,1837.253 1332.07878,1840.03637 M1388.70295,1856.91189 C1395.41789,1858.37487 1402.19638,1859.66771 1409.03367,1860.78567 M1473.5,1866 C1492.04496,1866 1510.29255,1864.72684 1528.16014,1862.26315 M1589.644,1848.71795 C1609.3479,1842.69062 1628.39944,1835.16973 1646.66664,1826.28727 M1702.95526,1792.9002 C1722.46417,1779.03342 1740.66437,1763.44558 1757.33443,1746.35812 M1786.8951,1712.42077 C1800.40814,1695.01269 1812.50276,1676.4486 1823.00553,1656.90192 M1849.80806,1594.75888 C1856.21371,1575.50541 1861.18306,1555.59591 1864.58904,1535.15748 M1870,1469.5 C1870,1443.00014 1867.40032,1417.10748 1862.44208,1392.06311 M1839.53532,1316.81617 C1834.8742,1305.65485 1829.71746,1294.75212 1824.09261,1284.13549 M1797.55973,1240.97544 C1786.12559,1224.79085 1773.50958,1209.50073 1759.83731,1195.2307 M1730.89632,1167.89535 C1717.13509,1156.13997 1702.55961,1145.30991 1687.26624,1135.5015 M1653.6709,1116.2048 C1639.47927,1108.95298 1624.79303,1102.53112 1609.67618,1097.00323 M1574.8783,1086.07856 C1554.88784,1080.80706 1534.2795,1077.05746 1513.18469,1074.96117 M1473.5,1073 C1452.27156,1073 1431.43277,1074.66828 1411.10758,1077.88088 M1383.39631,1083.28269 C1365.70393,1087.39398 1348.46595,1092.68962 1331.77043,1099.08154 M1305.11236,1110.42845 C1281.55767,1121.49364 1259.26921,1134.80832 1238.52376,1150.0957 M1194.05093,1188.21638 C1184.16558,1198.03765 1174.79506,1208.37648 1165.98341,1219.18883" id="Oval-61-Copy-12" sketch:type="MSShapeGroup" transform="translate(1473.500000, 1469.500000) rotate(298.000000) translate(-1473.500000, -1469.500000) "></path>
                <path d="M1093.75403,1286.36945 C1082.37337,1309.92552 1073.11995,1334.7017 1066.24316,1360.44859 M1059.23957,1391.30381 C1054.48609,1416.64274 1052,1442.78104 1052,1469.5 M1054.04406,1511.27453 L1054.04406,1511.27453 C1055.71163,1528.22382 1058.38316,1544.87835 1061.9984,1561.17783 M1092.73054,1650.49676 C1102.91931,1671.89303 1114.8584,1692.29508 1128.36266,1711.51774 M1182.6245,1774.54806 C1203.15284,1794.12845 1225.65481,1811.65776 1249.80161,1826.80719 M1319.28602,1861.89704 C1354.51706,1875.75396 1392.06527,1885.00323 1431.18857,1888.90277 M1473.5,1891 C1521.16629,1891 1566.98457,1883.08773 1609.71311,1868.50493 M1702.68552,1823.30534 C1711.3809,1817.66113 1719.85514,1811.70508 1728.09239,1805.45302 M1768.24821,1770.80695 C1783.78507,1755.60621 1798.15101,1739.2135 1811.19812,1721.77674 M1858.51316,1641.30064 C1877.33578,1599.18225 1889.45009,1553.40942 1893.49764,1505.34061 M1895,1469.5 C1895,1462.73241 1894.84051,1456.00207 1894.52507,1449.31254 M1888.84582,1397.33197 C1885.41561,1377.45052 1880.59266,1358.04581 1874.48107,1339.22193 M1834.3723,1251.58713 C1819.44933,1226.92704 1802.07,1203.91953 1782.57351,1182.90379 M1763.63212,1163.74461 C1745.03099,1146.08818 1724.82012,1130.11127 1703.24245,1116.05679 M1681.53268,1102.83077 C1655.98985,1088.30762 1628.78101,1076.37647 1600.26397,1067.39512 M1514.89851,1050.00723 C1501.27854,1048.67949 1487.46862,1048 1473.5,1048 M1387.0757,1056.86846 C1363.74465,1061.73023 1341.12124,1068.52088 1319.37982,1077.06608 M1230.37425,1125.14371 C1204.12907,1143.70741 1180.0995,1165.19594 1158.76013,1189.13468" id="Oval-61-Copy-2" sketch:type="MSShapeGroup" transform="translate(1473.500000, 1469.500000) rotate(33.000000) translate(-1473.500000, -1469.500000) "></path>
                <path d="M1124.24447,1209.30013 C1108.92962,1229.82328 1095.38117,1251.7418 1083.82435,1274.83046 M1059.18656,1334.9376 C1052.61814,1355.17571 1047.49134,1376.06348 1043.92731,1397.47975 M1038.69238,1444.73405 C1038.23285,1452.93087 1038,1461.18824 1038,1469.5 M1038.96083,1498.6608 L1038.96083,1498.6608 C1039.83229,1511.84219 1041.29021,1524.86329 1043.30876,1537.69824 M1059.17357,1604.02237 C1064.63803,1620.86461 1071.10087,1637.25701 1078.49228,1653.12976 M1104.35501,1700.67636 C1116.4478,1719.9456 1130.00753,1738.20076 1144.87763,1755.28529 M1215.391,1820.30612 C1255.28159,1849.70517 1300.36712,1872.46323 1349.01626,1886.94898 M1426.75093,1902.5202 C1442.10939,1904.1593 1457.70652,1905 1473.5,1905 M1611.85335,1882.56367 C1642.07796,1872.44448 1670.82476,1859.10081 1697.68523,1842.94117 M1798.69827,1759.17264 C1820.1697,1735.08501 1839.00496,1708.59644 1854.75113,1680.15985 M1898.56154,1564.70836 C1900.66925,1555.257 1902.46979,1545.68982 1903.95215,1536.01784 M1909,1469.5 C1909,1430.27438 1903.81406,1392.26001 1894.09041,1356.10509 M1874.73712,1299.89125 C1868.15295,1284.33461 1860.69048,1269.24009 1852.41188,1254.66989 M1807.19944,1189.65402 C1783.72085,1161.68666 1756.79129,1136.71373 1727.0663,1115.39079 M1678.29175,1085.05821 C1652.81832,1071.46019 1625.83481,1060.31995 1597.65785,1051.95412 M1484.82811,1034.14447 C1481.06375,1034.04835 1477.28752,1034 1473.5,1034 M1395.52618,1040.96073 C1356.6011,1047.99683 1319.47573,1060.2062 1284.88771,1076.85114" id="Oval-61-Copy-3" sketch:type="MSShapeGroup" transform="translate(1473.500000, 1469.500000) rotate(-18.000000) translate(-1473.500000, -1469.500000) "></path>
                <path d="M1017.70786,1302.48294 C1016.2183,1306.53008 1014.78117,1310.60256 1013.39728,1314.69956 M989.958826,1426.11312 C988.662286,1440.56871 988,1455.20701 988,1470 M988.687019,1496.03805 L988.687019,1496.03805 C989.734771,1515.84399 991.970769,1535.33483 995.325037,1554.44058 M1012.27155,1621.92666 C1022.03289,1651.54538 1034.57065,1679.90252 1049.57678,1706.69004 M1091.42626,1769.41044 C1101.56571,1782.31434 1112.34559,1794.69119 1123.71803,1806.49311 M1170.2014,1848.88703 C1186.78502,1862.1576 1204.25886,1874.36203 1222.51903,1885.39643 M1273.57045,1912.23155 C1305.40245,1926.60908 1339.06429,1937.6507 1374.11028,1944.91071 M1424.07466,1952.56288 C1440.16433,1954.17463 1456.48578,1955 1473,1955 M1504.77106,1953.976 C1534.45247,1952.05668 1563.4065,1947.46737 1591.39543,1940.44579 M1642.20696,1924.66658 C1660.95386,1917.68696 1679.15254,1909.58106 1696.72076,1900.43115 M1749.74936,1868.34214 C1757.63652,1862.85223 1765.35292,1857.13407 1772.88899,1851.19723 M1835.69338,1791.99941 C1846.22482,1780.14566 1856.18397,1767.77208 1865.52751,1754.922 M1901.74283,1696.93294 C1916.16931,1669.73361 1928.0833,1640.99754 1937.17547,1611.03405 M1950.09131,1557.69946 C1955.28626,1529.25515 1958,1499.94449 1958,1470 M1955.47642,1420.21917 C1952.64588,1392.45703 1947.4738,1365.38772 1940.16083,1339.21189 M1923.80609,1290.76744 C1919.76649,1280.61585 1915.39393,1270.6329 1910.70188,1260.83207 M1854.28013,1170.21627 C1845.90727,1159.58197 1837.09908,1149.30649 1827.88241,1139.41671 M1801.92413,1113.57852 C1782.55823,1095.6978 1761.73185,1079.37551 1739.64414,1064.81079 M1707.10417,1045.13857 C1695.58694,1038.77888 1683.78353,1032.8739 1671.71816,1027.44783 M1652.84433,1019.43784 C1624.82314,1008.24305 1595.51328,999.58654 1565.19898,993.752528 M1473,985 C1447.5868,985 1422.63012,986.954576 1398.27209,990.7216 M1327.7322,1007.13055 C1316.7758,1010.56567 1305.98676,1014.37907 1295.38039,1018.55544 M1271.44306,1028.73553 C1233.40229,1046.1397 1198.00258,1068.31832 1166.01054,1094.50478 M1130.83246,1126.27572 C1124.41961,1132.65971 1118.18438,1139.22197 1112.13483,1145.95444 M1079.48161,1186.44574 C1075.65345,1191.74919 1071.92985,1197.13311 1068.31386,1202.5945" id="Oval-61-Copy-4" sketch:type="MSShapeGroup"></path>
                <path d="M1066.5316,1132.98058 C1056.5413,1145.01616 1047.07537,1157.50264 1038.16887,1170.40495 M1002.84717,1229.46271 C994.365993,1246.00674 986.732395,1263.05701 980.003689,1280.55621 M967.509307,1316.99523 C956.478552,1353.48707 949.291205,1391.64739 946.4181,1431.00535 M945.071179,1461.24134 C945.023787,1464.15522 945,1467.07483 945,1470 M947.125873,1517.70399 L947.125873,1517.70399 C948.874818,1537.23428 951.687201,1556.4583 955.504697,1575.31774 M967.025629,1621.39536 C972.872297,1640.96369 979.823171,1660.05552 987.805942,1678.59853 M1002.33668,1709.53887 C1006.833,1718.35597 1011.5698,1727.02997 1016.53843,1735.55221 M1034.02961,1763.50864 C1039.55022,1771.7489 1045.29671,1779.82508 1051.26021,1787.72831 M1074.81283,1816.75512 C1087.80074,1831.65691 1101.61148,1845.82281 1116.17425,1859.18201 M1207.74711,1926.63594 C1216.10564,1931.50178 1224.60993,1936.14469 1233.25184,1940.55653 M1332.04152,1978.97524 C1352.65149,1984.67054 1373.76721,1989.14756 1395.30632,1992.32394 M1473,1998 C1485.18349,1998 1497.27061,1997.58735 1509.24812,1996.77525 M1656.6758,1965.17534 C1678.26778,1957.16314 1699.1933,1947.77907 1719.34648,1937.12901 M1750.48148,1919.29416 C1758.95263,1914.0513 1767.26446,1908.57555 1775.40803,1902.87585 M1830.11702,1858.9146 C1847.40379,1843.03283 1863.62875,1826.01344 1878.67322,1807.97511 M1891.46292,1792.02533 C1906.71193,1772.23903 1920.58898,1751.34095 1932.95165,1729.47351 M1950.29266,1696.0673 C1959.20134,1677.29181 1967.03478,1657.90702 1973.71344,1637.99249 M1995.66807,1545.32282 C1997.55348,1532.12266 1998.95066,1518.76506 1999.84074,1505.26892 M2001,1470 C2001,1441.22827 1998.6987,1412.99405 1994.27012,1385.47134 M1980.98757,1325.51542 C1979.12091,1318.93977 1977.13002,1312.41638 1975.01759,1305.94794 M1959.71359,1264.96737 C1949.61354,1241.0207 1937.7978,1217.9748 1924.42036,1195.98366 M1855.70633,1106.24048 C1849.25856,1099.45902 1842.63242,1092.84874 1835.83544,1086.41717 M1775.0691,1036.88712 C1763.65164,1028.90931 1751.90406,1021.37144 1739.85095,1014.29811 M1651.81705,973.048943 C1633.76216,966.551288 1615.25102,961.009593 1596.34469,956.484921 M1553.45319,948.090472 C1537.20986,945.607139 1520.72292,943.863993 1504.02787,942.896538 M1473,942 C1449.92102,942 1427.18788,943.480728 1404.8904,946.352363 M1346.70348,957.2004 C1343.247,958.048807 1339.80389,958.931249 1336.37453,959.84735 M1267.73415,983.384836 C1246.22998,992.466931 1225.45295,1002.93285 1205.51466,1014.67099 M1164.98554,1041.10257 C1144.54012,1055.81147 1125.18917,1071.94618 1107.07826,1089.36112" id="Oval-61-Copy-5" sketch:type="MSShapeGroup" transform="translate(1473.000000, 1470.000000) rotate(-22.000000) translate(-1473.000000, -1470.000000) "></path>
                <path d="M1024.05516,1147.7016 C1010.99625,1165.81174 999.007343,1184.74471 988.181083,1204.40789 M962.655188,1257.25505 C959.211243,1265.47945 955.960496,1273.80482 952.908624,1282.2255 M926.281567,1386.91445 C924.926961,1395.84068 923.785938,1404.83704 922.863873,1413.89816 M920,1470.5 C920,1492.04045 921.232688,1513.29299 923.631369,1534.19093 L923.631369,1534.19093 M926.629509,1556.3467 C928.488565,1568.26351 930.728499,1580.05418 933.336469,1591.70586 M957.217343,1670.26039 C963.218361,1685.72923 969.895857,1700.86068 977.213522,1715.61843 M994.348666,1747.49891 C999.733907,1756.77479 1005.38133,1765.87958 1011.28078,1774.80314 M1034.26463,1807.00648 C1053.30103,1831.76076 1074.38776,1854.8564 1097.27077,1876.0393 M1165.92526,1930.20939 C1173.23509,1935.09393 1180.66796,1939.80876 1188.21824,1944.34824 M1254.75597,1978.43726 C1284.84669,1991.3536 1316.31537,2001.67427 1348.88029,2009.11753 M1414.81585,2020.02492 C1433.77555,2021.99186 1453.02004,2023 1472.5,2023 M1581.33009,2012.28428 C1606.57954,2007.24034 1631.2079,2000.47545 1655.08766,1992.11709 M1727.95287,1960.52579 C1741.57523,1953.40984 1754.86393,1945.74251 1767.78935,1937.55342 M1789.86444,1922.81368 C1817.80476,1903.17325 1843.84289,1881.0096 1867.64771,1856.65384 M1905.59345,1813.58972 C1920.40456,1794.91832 1934.03382,1775.26694 1946.36815,1754.74864 M1968.75373,1713.65796 C1976.08253,1698.72906 1982.7575,1683.42107 1988.74131,1667.77134 M2003.38157,1624.05491 C2011.90698,1594.52787 2018.03573,1563.98423 2021.5435,1532.6483 M2024.45972,1495.15511 C2024.81865,1486.9816 2025,1478.76198 2025,1470.5 M2022.91332,1422.14659 C2021.6556,1407.64031 2019.83731,1393.29447 2017.48024,1379.13083 M2007.3139,1331.29194 C2004.23523,1319.43078 2000.77241,1307.72443 1996.93951,1296.18699 M1979.21009,1249.91913 C1970.64592,1230.27326 1960.97268,1211.22199 1950.26948,1192.8444 M1916.23218,1141.26423 C1906.7081,1128.44904 1896.642,1116.06066 1886.06781,1104.13298 M1868.93895,1085.67168 C1858.07896,1074.48612 1846.74972,1063.75865 1834.983,1053.52104 M1800.166,1025.60547 C1785.43684,1014.73927 1770.14873,1004.58703 1754.35276,995.199827 M1721.73242,977.274924 C1705.12267,968.865221 1688.03068,961.269856 1670.50898,954.541343 M1602.19141,933.306608 C1578.14515,927.522133 1553.48644,923.310266 1528.33017,920.785892 M1490.41055,918.284814 C1484.46361,918.095417 1478.49295,918 1472.5,918 M1428.51928,919.724938 C1398.01274,922.127524 1368.20297,927.007951 1339.29117,934.165031 M1291.20002,948.433996 C1264.32584,957.765488 1238.39474,969.113496 1213.5878,982.296923 M1131.00531,1036.14604 C1107.39032,1054.73815 1085.32853,1075.21471 1065.04665,1097.34901" id="Oval-61-Copy-19" sketch:type="MSShapeGroup" transform="translate(1472.500000, 1470.500000) rotate(-27.000000) translate(-1472.500000, -1470.500000) "></path>
                <path d="M893.933111,1333.76055 C891.08174,1345.81626 888.597742,1358.014 886.493588,1370.34129 M878.74965,1440.89521 C878.251863,1450.86736 878,1460.90427 878,1471 M883.812182,1554.42377 L883.812182,1554.42377 C887.01081,1577.18163 891.499046,1599.52559 897.20062,1621.37939 M907.671214,1656.90347 C912.967268,1672.98943 918.931915,1688.77174 925.53227,1704.21753 M956.781893,1766.81314 C964.469891,1780.17449 972.662696,1793.20856 981.334271,1805.88932 M1020.52836,1857.03429 C1047.20382,1888.2021 1077.0506,1916.57499 1109.56881,1941.65306 M1151.33956,1971.0993 C1181.73143,1990.62678 1214.01947,2007.45955 1247.86626,2021.26019 M1339.13377,2050.08367 C1377.0202,2058.74055 1416.28653,2063.77491 1456.54896,2064.80295 M1472,2065 C1493.37235,2065 1514.48108,2063.87126 1535.26981,2061.67014 M1631.34958,2043.38345 C1664.77045,2034.09916 1697.00576,2021.96634 1727.77759,2007.26293 M1784.45226,1976.27906 C1822.45599,1952.72853 1857.60564,1925.01009 1889.2629,1893.76207 M1948.76466,1825.36583 C1968.35937,1799.04607 1985.8261,1771.04838 2000.91014,1741.62746 M2021.87912,1696.06606 C2032.4566,1670.25037 2041.26896,1643.52456 2048.16611,1616.03871 M2057.31642,1572.76546 C2063.02509,1539.69924 2066,1505.69703 2066,1471 M2059.00245,1379.54185 C2053.40096,1343.2956 2044.52263,1308.13142 2032.67962,1274.36152 M2011.84284,1222.85396 C1994.97569,1186.21994 1974.48928,1151.59633 1950.8418,1119.44133 M1900.00395,1059.11478 C1879.72022,1038.04231 1857.89499,1018.46419 1834.70972,1000.56187 M1771.88036,958.143635 C1763.83084,953.426707 1755.66037,948.893872 1747.37473,944.550908 M1683.39311,915.716617 C1675.4439,912.68867 1667.4129,909.826512 1659.30434,907.134371 M1599.28498,890.669458 C1594.11634,889.541023 1588.92254,888.479881 1583.70455,887.486996 M1519.11671,878.841332 C1503.57164,877.621452 1487.85839,877 1472,877 M1346.68822,890.242196 C1299.30262,900.417942 1254.01569,916.246041 1211.56768,936.986239 M1079.08104,1025.51239 C1048.7558,1052.27969 1021.18471,1082.09513 996.847207,1114.47927 M940.980364,1204.52724 C933.70384,1218.99935 927.001526,1233.80986 920.90333,1248.92887" id="Oval-61-Copy-30" sketch:type="MSShapeGroup" transform="translate(1472.000000, 1471.000000) rotate(-27.000000) translate(-1472.000000, -1471.000000) "></path>
                <path d="M896.511441,1255.90182 C891.965463,1268.0983 887.795784,1280.47806 884.01652,1293.02698 M860.030637,1420.18051 C858.685623,1436.77605 858,1453.55796 858,1470.5 M858.255971,1488.40931 L858.255971,1488.40931 C859.387657,1527.95078 864.254754,1566.5566 872.516781,1603.8863 M905.306537,1707.35135 C910.969432,1720.89658 917.103389,1734.19586 923.687932,1747.22872 M987.159522,1847.44797 C992.891354,1854.81738 998.787339,1862.05279 1004.84199,1869.14872 M1114.0292,1969.66501 C1121.57392,1975.09276 1129.2467,1980.35368 1137.04213,1985.44237 M1183.17613,2012.76436 C1188.80198,2015.7723 1194.48011,2018.69525 1200.2088,2021.53149 M1263.8628,2048.67512 C1287.344,2057.1499 1311.48958,2064.23494 1336.20025,2069.83092 M1366.24311,2075.84684 C1400.75835,2081.86338 1436.26288,2085 1472.5,2085 M1547.91723,2080.41815 C1575.30948,2077.06595 1602.14468,2071.91126 1628.30059,2065.07633 M1729.32832,2028.91929 C1741.0348,2023.52633 1752.54275,2017.77609 1763.8382,2011.68254 M1864.97437,1943.357 C1877.22192,1933.1802 1889.06776,1922.53659 1900.48458,1911.45348 M1974.35295,1825.20475 C1990.07115,1803.00636 2004.35356,1779.71943 2017.06493,1755.47923 M2064.4798,1635.91534 C2067.76268,1624.14192 2070.70376,1612.22598 2073.29169,1600.17891 M2081.66838,1551.80791 C2083.46272,1538.23417 2084.814,1524.52067 2085.70723,1510.68241 M2087,1470.5 C2087,1448.55525 2085.84969,1426.87917 2083.60608,1405.52877 M2067.53533,1316.46671 C2058.68968,1282.19711 2046.96168,1249.08617 2032.62529,1217.40787 M1996.79151,1149.81892 C1989.84524,1138.48646 1982.54186,1127.39656 1974.89703,1116.56488 M1942.52794,1074.64552 C1933.30944,1063.71095 1923.71633,1053.10253 1913.7684,1042.84005 M1828.82278,969.796654 C1796.23889,946.566803 1761.29129,926.438167 1724.41086,909.841621 M1573.79561,864.309318 C1540.84229,858.843632 1507.00323,856 1472.5,856 M1405.66567,859.592572 C1347.35946,865.89895 1291.49885,880.361227 1239.24803,901.81521 M1077.41738,999.822413 C1057.36456,1016.6722 1038.40403,1034.77988 1020.6573,1054.02394 M973.919629,1111.21792 C961.022524,1129.08406 949.062108,1147.67112 938.110359,1166.90712" id="Oval-61-Copy-6" sketch:type="MSShapeGroup" transform="translate(1472.500000, 1470.500000) rotate(-18.000000) translate(-1472.500000, -1470.500000) "></path>
                <path d="M827.148116,1417.37433 C825.725307,1434.89495 825,1452.61277 825,1470.5 M828.50772,1538.30562 L828.50772,1538.30562 C830.658888,1558.97782 833.782682,1579.36092 837.832538,1599.40836 M844.431653,1628.56813 C851.415559,1656.40612 860.201722,1683.52898 870.658909,1709.80548 M914.080224,1798.45946 C928.881605,1823.60761 945.33329,1847.66798 963.286418,1870.49171 M1080.05543,1985.56099 C1084.8682,1989.23363 1089.73396,1992.84034 1094.65139,1996.37978 M1149.12037,2031.59011 C1169.25241,2043.21811 1190.06864,2053.79372 1211.49387,2063.24176 M1261.06828,2082.69382 C1264.14239,2083.75533 1267.22699,2084.79434 1270.32188,2085.81065 M1331.73635,2102.65619 C1337.67108,2103.97182 1343.63644,2105.20601 1349.6312,2106.35753 M1472.5,2118 C1495.25392,2118 1517.73371,2116.82632 1539.88213,2114.53621 M1594.78746,2106.46892 C1625.98046,2100.50683 1656.37904,2092.30672 1685.80969,2082.04209 M1743.06393,2058.93372 C1763.03254,2049.7369 1782.45304,2039.55353 1801.26297,2028.44608 M1862.40014,1987.49278 C1879.83915,1974.32012 1896.59067,1960.28549 1912.59134,1945.45225 M1984.12205,1867.41081 C2010.14434,1833.91629 2032.94994,1797.79839 2052.07516,1759.52081 M2073.68288,1711.4528 C2077.13834,1702.83927 2080.41404,1694.13425 2083.50536,1685.34238 M2099.88832,1631.2542 C2105.64007,1608.73925 2110.21176,1585.75217 2113.53361,1562.36275 M2120,1470.5 C2120,1438.07214 2117.61618,1406.20104 2113.01423,1375.0524 M2085.9402,1262.71313 C2081.70623,1250.20916 2077.10069,1237.87656 2072.13671,1225.72846 M2029.63793,1140.37229 C2015.84573,1117.14607 2000.64245,1094.85603 1984.14625,1073.62034 M1944.42597,1027.16641 C1934.50684,1016.61165 1924.23763,1006.38972 1913.63689,996.519147 M1858.99804,950.95486 C1841.273,937.74742 1822.84914,925.42565 1803.79197,914.055085 M1759.60816,889.973151 C1744.15337,882.315099 1728.34908,875.256028 1712.22564,868.826288 M1598.57488,835.266749 C1576.23038,830.85708 1553.47292,827.596958 1530.36667,825.550554 M1472.5,823 C1455.62919,823 1438.90908,823.64522 1422.363,824.91233 M1354.71878,833.686375 C1308.14249,842.245857 1263.31029,855.789374 1220.79558,873.74353 M1171.36114,897.140236 C1145.3888,910.809535 1120.45854,926.191872 1096.72061,943.136995 M1067.43653,965.316909 C1060.15778,971.160636 1053.008,977.158425 1045.99216,983.305329 M1017.98935,1009.33142 C1004.24695,1022.87665 991.107082,1037.03153 978.613582,1051.75221 M940.073048,1101.91717 C926.044372,1122.14374 913.13865,1143.20811 901.446089,1165.02008 M888.59173,1190.31971 C881.169586,1205.7597 874.341806,1221.53944 868.138055,1237.62928 M858.653941,1263.91565 C847.888075,1295.91793 839.55466,1329.03798 833.87348,1363.056" id="Oval-61-Copy-13" sketch:type="MSShapeGroup" transform="translate(1472.500000, 1470.500000) rotate(25.000000) translate(-1472.500000, -1470.500000) "></path>
                <path d="M782.439813,1383.62293 C779.455384,1407.41518 777.673655,1431.58152 777.157416,1456.05914 M777,1471 C777,1494.32245 778.148786,1517.37658 780.39286,1540.1089 L780.39286,1540.1089 M787.116364,1589.81551 C792.898204,1623.37992 801.087326,1656.12075 811.499559,1687.85383 M834.355263,1747.91073 C839.225949,1759.111 844.383089,1770.15793 849.817434,1781.04228 M937.314353,1915.02841 C945.853141,1925.29921 954.682253,1935.32006 963.789096,1945.07837 M1011.15224,1991.24535 C1045.06484,2021.30835 1081.93791,2048.10627 1121.27885,2071.14648 M1209.45037,2114.69827 C1244.70714,2129.09347 1281.41093,2140.67625 1319.28294,2149.16781 M1381.16913,2160.11817 C1410.89656,2163.99838 1441.21453,2166 1472,2166 M1583.42804,2157.11513 C1596.25328,2155.04832 1608.96107,2152.63056 1621.54126,2149.87203 M1794.93523,2086.57602 C1809.59422,2078.86996 1823.94426,2070.65563 1837.96194,2061.95646 M1880.82922,2033.09561 C1927.04237,1999.42558 1968.94477,1960.19501 2005.55286,1916.38747 M2035.10145,1878.4451 C2040.46733,1871.04216 2045.69081,1863.52926 2050.76785,1855.91043 M2108.91876,1749.57414 C2119.52906,1725.34968 2128.79784,1700.40383 2136.63116,1674.83054 M2157.06068,1588.78311 C2159.40893,1575.02684 2161.35291,1561.13268 2162.87996,1547.1133 M2167,1471 C2167,1452.41592 2166.27059,1434.0022 2164.83883,1415.78592 M2140.32704,1279.65509 C2137.12423,1268.44741 2133.64712,1257.35548 2129.90343,1246.38704 M2094.11851,1160.82945 C2089.38019,1151.34407 2084.43132,1141.98222 2079.27803,1132.75003 M2036.50812,1065.50264 C2014.80887,1035.34754 1990.75305,1007.00167 1964.61032,980.734679 M1940.85907,957.967623 C1907.276,927.259066 1870.66766,899.804199 1831.53302,876.101989 M1770.51283,843.193858 C1752.36514,834.54947 1733.78355,826.668782 1714.80965,819.593355 M1601.3798,788.020619 C1578.14589,783.646319 1554.50382,780.428271 1530.51564,778.428529 M1472,776 C1406.92248,776 1343.93405,784.944435 1284.19699,801.671019 M1254.31575,810.772618 C1184.02387,833.935486 1118.69005,868.010619 1060.31933,910.992988 M1039.40734,927.009396 C1030.99121,933.710975 1022.7341,940.60376 1014.64259,947.681178 M912.956981,1058.0134 C900.832891,1074.3981 889.411955,1091.33459 878.738754,1108.77828 M824.591918,1217.72775 C820.755641,1227.5265 817.135401,1237.43358 813.737056,1247.44316" id="Oval-61-Copy-15" sketch:type="MSShapeGroup" transform="translate(1472.000000, 1471.000000) rotate(307.000000) translate(-1472.000000, -1471.000000) "></path>
                <path d="M895.189579,1043.35699 C885.504028,1056.39954 876.250356,1069.78195 867.449717,1083.48307 M827.137785,1154.91691 C819.193231,1171.09455 811.839516,1187.61483 805.104781,1204.44962 M785.441519,1260.20319 C776.459003,1289.49431 769.299511,1319.58273 764.095387,1350.33611 M757.766822,1397.00154 C755.276149,1421.32855 754,1446.01525 754,1471 M754.912965,1507.5257 L754.912965,1507.5257 C755.414691,1517.53896 756.121552,1527.49818 757.02943,1537.39923 M769.426006,1619.74169 C773.630093,1639.69869 778.663026,1659.3503 784.487115,1678.65884 M813.822715,1758.38038 C825.674572,1785.48601 839.151775,1811.71858 854.13111,1836.95486 M878.491531,1875.1925 C895.953598,1900.78391 915.027652,1925.18774 935.567537,1948.25782 M1048.41038,2050.7986 C1075.63895,2070.72514 1104.32358,2088.78 1134.27487,2104.77378 M1270.42739,2160.31914 C1321.51762,2175.23418 1374.96466,2184.62347 1430.07797,2187.79651 M1472,2189 C1497.71197,2189 1523.10828,2187.64848 1548.12176,2185.01261 M1677.42395,2159.18301 C1753.82708,2136.41008 1824.89583,2101.26071 1888.30464,2056.06046 M1979.79819,1978.60713 C2015.98589,1942.40589 2048.32668,1902.3589 2076.15484,1859.13188 M2137.06055,1742.09123 C2157.63559,1691.66672 2172.64258,1638.37854 2181.31762,1582.99061 M2190,1471 C2190,1451.61189 2189.23154,1432.40327 2187.72341,1413.40293 M2175.3062,1325.77805 C2169.3301,1296.68366 2161.59402,1268.23131 2152.21412,1240.53715 M2118.39598,1158.05954 C2097.39835,1114.76785 2072.17972,1073.90357 2043.27498,1036.00158 M1986.4717,970.15726 C1958.43928,941.366839 1928.01076,914.921012 1895.50822,891.141839 M1840.48312,854.638811 C1817.54292,840.894792 1793.77168,828.395173 1769.2627,817.233242 M1701.92552,790.604131 C1691.57751,787.108483 1681.12382,783.842282 1670.57051,780.811581 M1510.39963,754.009288 C1497.68462,753.339245 1484.88193,753 1472,753 M1415.31133,755.20506 C1377.4174,758.164781 1340.34952,764.066332 1304.33589,772.681512 M1227.71196,795.627411 C1209.97951,802.042628 1192.57186,809.136337 1175.52037,816.877183 M970.394091,957.272475 C962.315526,965.161598 954.422322,973.239699 946.721627,981.499632" id="Oval-61-Copy-21" sketch:type="MSShapeGroup" transform="translate(1472.000000, 1471.000000) rotate(314.000000) translate(-1472.000000, -1471.000000) "></path>
                <path d="M1753.65524,638.09458 C1700.01679,619.962567 1644.05802,606.866548 1586.34157,599.369162 M1358.1223,599.309032 C1292.92608,607.742778 1229.97,623.319887 1170.0646,645.229797 M1079.58363,684.241049 C1039.30703,704.369066 1000.79213,727.49886 964.332109,753.337257 M818.624678,882.990723 C809.796875,892.793516 801.186524,902.796004 792.801222,912.990587 M674.074288,1101.77516 C664.327431,1122.8036 655.387375,1144.28216 647.29386,1166.17113 M604.311082,1329.61339 C600.061244,1355.8964 596.976824,1382.56982 595.112548,1409.57894 M593,1471 C593,1508.78317 595.383876,1546.00956 600.009426,1582.53696 L600.009426,1582.53696 M621.885776,1695.3352 C631.879525,1733.30817 644.350081,1770.27648 659.114263,1806.05697 M745.888806,1966.53191 C755.906542,1981.18279 766.356139,1995.51499 777.219264,2009.51017 M910.050641,2146.93891 C952.094979,2181.93137 997.455641,2213.07521 1045.5918,2239.8296 M1163.60118,2294.37728 C1237.3884,2322.02711 1315.88295,2340.04248 1397.55322,2346.8918 M1472,2350 C1540.8414,2350 1607.83444,2342.08618 1672.11897,2327.11865 M1911.77034,2232.249 C1955.25235,2207.07537 1996.37783,2178.2832 2034.73491,2146.28435 M2228.56711,1918.75986 C2237.32246,1903.99805 2245.65806,1888.95801 2253.55748,1873.65617 M2292.14241,1787.89648 C2297.47314,1774.10963 2302.46624,1760.15473 2307.11158,1746.04191 M2340.52527,1607.11232 C2347.42124,1562.75179 2351,1517.29383 2351,1471 M2350.33141,1436.39749 C2348.21416,1381.70317 2341.09945,1328.29096 2329.43102,1276.6046 M2294.06362,1159.11814 C2278.45338,1117.99492 2259.84604,1078.34727 2238.50833,1040.44192 M2038.53857,798.90697 C2009.56821,774.461488 1978.9955,751.85506 1947.00047,731.267714" id="Oval-61-Copy-16" sketch:type="MSShapeGroup" transform="translate(1472.000000, 1474.654516) rotate(298.000000) translate(-1472.000000, -1474.654516) "></path>
                <path d="M649,1471.5 C649,1485.29034 649.339383,1499.00141 650.010252,1512.62532 L650.010252,1512.62532 M656.25004,1581.18652 C665.072701,1647.39232 681.77097,1711.10825 705.371987,1771.36145 M740.058554,1848.04071 C781.116695,1927.63636 834.785629,1999.66739 898.423555,2061.49198 M966.767388,2120.9717 C1007.48958,2152.66422 1051.27089,2180.61095 1097.59383,2204.29441 M1136.08307,2222.7243 C1191.01273,2247.28737 1249.12931,2266.00269 1309.64114,2278.07862 M1406.44812,2291.46521 C1427.91121,2293.14454 1449.6057,2294 1471.5,2294 M1524.32994,2292.33065 C1569.75483,2289.45109 1614.1781,2282.88425 1657.30378,2272.9261 M1693.75357,2263.62025 C1754.63561,2246.57328 1812.66399,2222.69602 1866.9602,2192.86698 M1905.05462,2170.58628 C1959.95615,2136.46555 2010.54304,2096.05769 2055.809,2050.36902 M2095.41331,2007.46842 C2105.02842,1996.28587 2114.34805,1984.84194 2123.36008,1973.14874 M2242.2543,1759.26918 C2246.96907,1746.6467 2251.38265,1733.87733 2255.48629,1720.96982 M2292.15977,1526.95942 C2293.38009,1508.63073 2294,1490.13776 2294,1471.5 M2285.71616,1354.31926 C2284.77046,1347.68916 2283.74568,1341.08455 2282.64283,1334.50641 M2268.06733,1265.79604 C2262.00351,1242.24619 2254.9229,1219.10462 2246.87508,1196.42092 M2151.34754,1008.41844 C2139.28289,990.740611 2126.54674,973.55757 2113.1758,956.906032 M2059.45129,896.330423 C2004.4791,840.144315 1941.51847,791.805819 1872.40652,753.152049 M1840.72608,736.331673 C1809.5355,720.635998 1777.20888,706.866868 1743.90245,695.180525 M1471.5,649 C1453.71252,649 1436.05692,649.564636 1418.55015,650.676962 M1112.48859,731.280175 C1085.57295,744.358665 1059.47769,758.861951 1034.30088,774.691962 M878.508352,901.527363 C858.49259,922.34635 839.562723,944.216997 821.809857,967.048201 M738.752981,1097.50115 C719.389074,1135.36353 702.87353,1174.92437 689.488985,1215.90106" id="Oval-61-Copy-20" sketch:type="MSShapeGroup" transform="translate(1471.500000, 1471.500000) rotate(-11.000000) translate(-1471.500000, -1471.500000) "></path>
                <path d="M686.692216,1419.49132 C685.56993,1436.68272 685,1454.0248 685,1471.5 M687.694486,1537.07126 L687.694486,1537.07126 C691.048143,1577.70388 697.490487,1617.46062 706.786188,1656.10616 M740.864578,1763.1907 C761.361381,1814.48586 787.103521,1863.11772 817.427962,1908.42325 M855.215459,1960.19658 C902.582697,2019.85027 958.428204,2072.46838 1020.93033,2116.22926 M1052.98158,2137.52311 C1119.58693,2179.46498 1192.92515,2211.69209 1271.00768,2232.21587 M1302.40527,2239.77815 C1356.87198,2251.71135 1413.45159,2258 1471.5,2258 M1573.44079,2251.45407 C1615.06433,2246.06713 1655.66727,2237.42611 1694.98614,2225.79448 M1733.66453,2213.24741 C1802.8962,2188.77775 1867.67897,2154.88998 1926.47338,2113.12352 M2001.91372,2052.23349 C2019.05008,2036.57322 2035.49094,2020.16456 2051.18457,2003.05925 M2119.83989,1916.86841 C2135.75274,1893.74766 2150.46085,1869.73343 2163.87361,1844.91633 M2234.07012,1664.79882 C2236.88192,1653.67177 2239.45658,1642.45031 2241.78841,1631.14014 M2258,1471.5 C2258,1453.83259 2257.41746,1436.30124 2256.27055,1418.9241 M2245.897,1333.29522 C2242.59416,1314.66271 2238.6353,1296.25685 2234.04514,1278.10237 M2216.93958,1220.02767 C2204.05695,1181.82552 2188.32003,1144.93672 2169.98246,1109.61491 M2058.64035,948.182655 C2040.86723,928.256006 2022.09485,909.239894 2002.40189,891.213 M1938.20321,838.372192 C1903.63155,812.845579 1866.89459,790.082945 1828.31857,770.410548 M1684.38229,714.149978 C1644.84873,703.060352 1604.05558,694.98291 1562.26604,690.180859 M1471.5,685 C1465.22259,685 1458.96236,685.073542 1452.72011,685.219813 M1372.2014,691.208527 C1275.52269,703.388166 1184.30863,733.117022 1101.85051,777.103784 M1023.96206,824.658641 C1010.5913,833.927118 997.52176,843.599504 984.771085,853.65815 M848.475657,991.413115 C808.989198,1042.58034 775.665436,1098.74687 749.616097,1158.80098" id="Oval-61-Copy-23" sketch:type="MSShapeGroup" transform="translate(1471.500000, 1471.500000) rotate(99.000000) translate(-1471.500000, -1471.500000) "></path>
                <path d="M737.067034,1270.12051 C725.01496,1314.03532 716.79883,1359.53728 712.801393,1406.24366 M710,1472 C710,1507.65668 712.452297,1542.74061 717.197434,1577.0923 L717.197434,1577.0923 M741.338994,1688.83982 C747.012819,1707.96104 753.417782,1726.76785 760.521484,1745.22785 M833.568678,1887.85525 C844.010816,1903.82858 855.03714,1919.38542 866.617312,1934.49542 M912.402855,1988.81298 C943.782429,2022.71326 978.209656,2053.75161 1015.24914,2081.49263 M1065.35012,2115.98745 C1102.29621,2139.30884 1141.38884,2159.53865 1182.26465,2176.31356 M1370.58048,2226.43329 C1403.4391,2230.76484 1436.95853,2233 1471,2233 M1606.5178,2220.96919 C1675.37853,2208.59195 1741.02296,2186.95099 1802.11492,2157.38248 M1924.67143,2083.04453 C1941.29652,2070.68096 1957.39973,2057.65495 1972.94199,2044.00556 M2035.38549,1982.489 C2043.4818,1973.54342 2051.36841,1964.40447 2059.03755,1955.07991 M2084.67126,1922.11788 C2112.94328,1883.63796 2137.68308,1842.40164 2158.41273,1798.88687 M2170.58035,1772.00853 C2180.27571,1749.42995 2188.91,1726.28795 2196.42044,1702.64526 M2229.81233,1530.13836 C2231.262,1510.94883 2232,1491.5606 2232,1472 M2223.96813,1361.03591 C2222.00006,1347.56443 2219.67904,1334.20752 2217.01476,1320.97487 M2175.26978,1183.15799 C2172.19048,1175.65783 2168.99485,1168.21773 2165.68514,1160.83993 M2139.32003,1107.73595 C2129.23766,1089.27685 2118.41281,1071.28142 2106.88562,1053.7898 M2020.1869,945.201827 C2010.99919,935.626124 2001.56347,926.290217 1991.89006,917.204433 M1828.46178,800.009395 C1819.65788,795.316435 1810.75089,790.791426 1801.74509,786.438644 M1581.19912,718.920515 C1561.15544,716.013117 1540.8587,713.886952 1520.34079,712.573897 M1471,711 C1437.33358,711 1404.17776,713.186176 1371.66678,717.424309 M1342.01614,721.885864 C1292.83579,730.282221 1245.26503,743.397662 1199.78639,760.74967 M1083.7825,816.740144 C1049.02249,837.325458 1016.04172,860.5979 985.126259,886.271398 M889.548577,981.021154 C869.676927,1004.5307 851.205289,1029.26174 834.262299,1055.08564 M799.453316,1113.70668 C785.601222,1139.61537 773.20464,1166.41934 762.372803,1194.00934" id="Oval-61-Copy-31" sketch:type="MSShapeGroup" transform="translate(1471.000000, 1472.000000) rotate(37.000000) translate(-1471.000000, -1472.000000) "></path>
                <path d="M733.472752,659.195176 C655.761032,729.842632 588.228022,811.489225 533.333265,901.67541 M382.229385,1336.42758 C376.797042,1380.69061 374,1425.76866 374,1471.5 M582.470726,2115.16651 C687.676728,2260.22462 827.516577,2378.52885 989.852074,2457.941 M1471.5,2569 C1636.09338,2569 1792.22425,2532.76769 1932.35182,2467.84388 M2002.74739,2432.08553 C2131.85836,2360.52872 2245.02067,2263.69763 2335.55488,2148.2717 M2521.39202,1792.23611 C2552.34747,1690.77988 2569,1583.08464 2569,1471.5 M2279.09589,728.325724 C2078.5301,510.485987 1790.95405,374 1471.5,374 M1285.49619,389.696949 C1250.47295,395.675843 1216.01571,403.314194 1182.20825,412.528219" id="Oval-61-Copy-17" sketch:type="MSShapeGroup" transform="translate(1471.500000, 1471.500000) rotate(-5.000000) translate(-1471.500000, -1471.500000) "></path>
                <path d="M1471.5,412 C1399.83319,412 1329.82831,419.115592 1262.15331,432.678829 M981.163139,532.04831 C850.508203,600.382207 735.87707,695.173028 644.381408,809.309103 M557.2618,935.711804 C542.360226,961.084193 528.484698,987.131831 515.692212,1013.79772 M486.601068,1080.20329 C450.188565,1171.7751 426.177248,1269.62485 416.640687,1371.67899 M412,1471.5 C412,1529.58711 416.674491,1586.58243 425.66782,1642.13031 L425.66782,1642.13031 M482.546282,1852.44047 C521.066479,1952.37679 574.298594,2045.00383 639.588358,2127.66732 M695.696592,2193.08053 C800.167487,2305.35143 928.715628,2394.91542 1073.12177,2453.55326 M1471.5,2531 C1510.59985,2531 1549.20502,2528.882 1587.20704,2524.75448 M1966.95089,2408.25916 C2141.78106,2315.59962 2287.56732,2175.42966 2387.10532,2004.95362 M2531,1471.5 C2531,1233.80605 2452.72716,1014.3937 2320.55072,837.632188 M1875.59062,491.785859 C1810.11207,464.749129 1741.33158,444.085593 1670.02214,430.568234" id="Oval-61-Copy-33" sketch:type="MSShapeGroup" transform="translate(1471.500000, 1471.500000) rotate(34.000000) translate(-1471.500000, -1471.500000) "></path>
                <path d="M1471,459 C1445.19353,459 1419.61244,459.964992 1394.29086,461.86086 M785.651277,726.025781 C704.643342,800.489178 635.79745,887.977388 582.433998,985.170011 M562.937085,1022.50463 C518.23587,1112.63618 486.558763,1210.37177 470.36681,1313.25035 M458,1472 C458,1504.00834 459.484543,1535.66995 462.388531,1566.91972 L462.388531,1566.91972 M473.226308,1647.95017 C486.371911,1723.01196 507.78096,1795.23062 536.481156,1863.63384 M658.992422,2077.7532 C738.603675,2184.29896 838.692416,2274.65171 953.425472,2342.97826 M1295.04627,2469.77307 C1338.84926,2477.44447 1383.62047,2482.30182 1429.16667,2484.15191 M1471,2485 C1505.77263,2485 1540.13606,2483.24797 1574.00682,2479.82737 M1782.28439,2436.27401 C1857.6375,2411.96702 1929.13347,2379.07269 1995.61914,2338.74419 M2051.78172,2302.08279 C2103.59358,2265.76447 2151.84925,2224.7186 2195.92246,2179.57145 M2316.56467,2030.0461 C2392.30611,1915.51171 2445.40009,1784.68843 2469.46453,1643.95834 M2484,1472 C2484,1369.82265 2468.8722,1271.17858 2440.73417,1178.18535 M2389.49297,1044.18038 C2383.15168,1030.58936 2376.51761,1017.1624 2369.59887,1003.90762 M2257.51561,833.542216 C2182.42402,741.150138 2091.37941,662.245284 1988.57783,601.023711 M1950.35756,579.372093 C1912.76318,559.140792 1873.74407,541.215121 1833.48951,525.784339" id="Oval-61-Copy-18" sketch:type="MSShapeGroup" transform="translate(1471.000000, 1472.000000) rotate(-330.000000) translate(-1471.000000, -1472.000000) "></path>
                <path d="M1063.54665,2368.11962 C1152.77941,2408.73033 1249.14741,2436.3975 1350.25208,2448.72256 M1470.5,2456 C1574.00385,2456 1673.77332,2440.01125 1767.4733,2410.36889 M1802.17538,2398.66997 C1884.02808,2369.3539 1960.86294,2329.49515 2031.04361,2280.73008 M2182.36913,2151.11479 C2255.02899,2074.91705 2315.57959,1987.06978 2360.93362,1890.66032 M2395.77807,1806.65508 C2407.60439,1773.91386 2417.74231,1740.36513 2426.08673,1706.11401 M2454,1472.5 C2454,1386.21812 2442.88932,1302.53129 2422.02066,1222.79218 M2311.08843,961.653203 C2305.25908,952.08162 2293.12738,933.264319 2293.12738,933.264319 M2189.81169,811.108213 C2147.87435,764.471094 2100.357,715.591599 2061.90083,686.606739 M2009.39809,649.65097 C1963.17487,619.317069 1914.24172,592.773057 1863.0404,570.460709 M1748.20819,528.754563 C1735.58497,525.046004 1722.85634,521.583823 1710.02785,518.373583 M1470.5,489 C1427.98733,489 1386.10466,491.697356 1345.01379,496.930261 M1225.05543,519.873868 C1141.31787,541.385786 1061.89214,573.647577 988.33658,615.100914 M913.942313,661.514805 C869.864032,691.822474 828.379856,725.630542 789.890888,762.537908 M633.945126,955.08827 C609.728765,994.158406 588.173084,1035.0508 569.531122,1077.5124 M488.985934,1409.48975 C487.668635,1430.32369 487,1451.33376 487,1472.5 M491.574172,1567.96793 L491.574172,1567.96793 C496.108532,1615.04104 503.961197,1661.14424 514.895433,1706.04078 M614.377078,1956.9209 C628.549908,1981.91489 643.785649,2006.22702 660.022861,2029.79587 M692.306488,2073.98125 C753.645611,2153.22547 826.820395,2222.8453 909.18055,2280.19043" id="Oval-61-Copy-32" sketch:type="MSShapeGroup" transform="translate(1470.500000, 1472.500000) rotate(-330.000000) translate(-1470.500000, -1472.500000) "></path>
                <path d="M649.529609,1925.53196 C658.981577,1942.62403 668.9518,1959.38958 679.419079,1975.80743 M762.682801,2087.25823 C783.609055,2111.33158 805.743142,2134.32703 828.990699,2156.1502 M1062.29054,2316.69984 C1138.63326,2353.68321 1220.7512,2380.61593 1306.92525,2395.77891 M1470.5,2410 C1496.2337,2410 1521.72523,2408.96317 1546.9351,2406.929 M1721.72594,2375.95869 C1730.35808,2373.56352 1738.94013,2371.04796 1747.47019,2368.41392 M1905.18854,2303.34921 C1962.22883,2273.44516 2015.81005,2237.83938 2065.17511,2197.28895 M2223.97397,2030.43774 C2232.7593,2018.59302 2241.27196,2006.53394 2249.50267,1994.26976 M2307.431,1895.38471 C2357.44406,1796.59922 2390.4817,1687.7618 2402.70726,1572.7091 M2406.76942,1520.95443 C2407.58649,1504.90616 2408,1488.75137 2408,1472.5 M2337.86991,1116.0767 C2331.37192,1100.28057 2324.45499,1084.70098 2317.13294,1069.35178 M2165.56364,843.368652 C2138.47577,813.460365 2109.48441,785.308247 2078.78073,759.103462 M2009.61544,705.422315 C1973.07054,679.690648 1934.60421,656.504446 1894.47423,636.121494 M1845.34903,612.942247 C1780.16638,584.476455 1711.1208,563.207812 1639.21663,550.14067 M1470.5,535 C1435.87971,535 1401.69773,536.876574 1368.05021,540.533553 M1271.23674,556.220269 C1246.73258,561.5242 1222.58527,567.786129 1198.83595,574.964888 M896.368882,731.310064 C891.77992,734.869876 887.224907,738.471363 882.704409,742.113959 M650.72131,1017.31974 C644.708801,1028.12513 638.903727,1039.06179 633.311472,1050.12434 M585.97778,1161.04244 C575.144437,1191.80909 565.870903,1223.31098 558.252117,1255.45319 M541.419127,1346.31675 C535.866908,1387.58717 533,1429.70878 533,1472.5 M548.114929,1641.07492 L548.114929,1641.07492 C556.130667,1685.22159 567.237916,1728.29107 581.204268,1770.05095" id="Oval-61-Copy-22" sketch:type="MSShapeGroup" transform="translate(1470.500000, 1472.500000) rotate(-330.000000) translate(-1470.500000, -1472.500000) "></path>
            </g>
        </g>
    </g>
</svg>