<?xml version="1.0" encoding="UTF-8" standalone="no"?>
<svg width="30px" height="170px" viewBox="0 0 30 170" version="1.1" xmlns="http://www.w3.org/2000/svg" xmlns:xlink="http://www.w3.org/1999/xlink" xmlns:sketch="http://www.bohemiancoding.com/sketch/ns">
    <!-- Generator: Sketch 3.5.1 (25234) - http://www.bohemiancoding.com/sketch -->
    <title>Mouse Thing</title>
    <desc>Created with Sketch.</desc>
    <defs></defs>
    <g id="Final-Mocks" stroke="none" stroke-width="1" fill="none" fill-rule="evenodd" sketch:type="MSPage">
        <g id="Home-Page" sketch:type="MSArtboardGroup" transform="translate(-707.000000, -874.000000)">
            <g id="Lead-In-Section" sketch:type="MSLayerGroup">
                <g id="Mouse-Thing" transform="translate(707.000000, 873.000000)" sketch:type="MSShapeGroup">
                    <path d="M15,49 L15,169" id="Line" stroke="#B3B3B3" stroke-linecap="square" stroke-dasharray="3"></path>
                    <path d="M2.5,15.4907035 L2.5,15.4907035 L2.5,34.5092965 C2.5,41.4092805 8.09533521,47 15,47 C21.9047679,47 27.5,41.4081519 27.5,34.5092965 L27.5,15.4907035 C27.5,8.59071947 21.9046648,3 15,3 C8.09523209,3 2.5,8.59184808 2.5,15.4907035 L2.5,15.4907035 Z M15,1 C23.0081289,1 29.5,7.2998225 29.5,15.0772558 L29.5,34.9227442 C29.5,42.6973979 23.0098896,49 15,49 C6.99187113,49 0.5,42.7001775 0.5,34.9227442 L0.5,15.0772558 C0.5,7.30260211 6.99011036,1 15,1 Z M14.1891234,9.70758752 C14.1891234,9.20831322 14.5893943,8.80357143 15.0909091,8.80357143 C15.5889516,8.80357143 15.9926948,9.21457015 15.9926948,9.70758752 L15.9926948,18.7209839 C15.9926948,19.2202582 15.5924238,19.625 15.0909091,19.625 C14.5928666,19.625 14.1891234,19.2140013 14.1891234,18.7209839 L14.1891234,9.70758752 Z" id="Mouse-Icon" fill="#1F4479"></path>
                    <circle id="Oval-17" fill="#B3B3B3" cx="15" cy="165.5" r="5.5"></circle>
                </g>
            </g>
        </g>
    </g>
</svg>