<?xml version="1.0" encoding="UTF-8" standalone="no"?>
<svg width="75px" height="64px" viewBox="0 0 75 64" version="1.1" xmlns="http://www.w3.org/2000/svg" xmlns:xlink="http://www.w3.org/1999/xlink" xmlns:sketch="http://www.bohemiancoding.com/sketch/ns">
    <!-- Generator: Sketch 3.5.1 (25234) - http://www.bohemiancoding.com/sketch -->
    <title>Logo</title>
    <desc>Created with Sketch.</desc>
    <defs>
        <path id="path-1" d="M0,0 L75,0 L75,64 L0,64"></path>
    </defs>
    <g id="Final-Mocks" stroke="none" stroke-width="1" fill="none" fill-rule="evenodd" sketch:type="MSPage">
        <g id="Development" sketch:type="MSArtboardGroup" transform="translate(-683.000000, -3896.000000)">
            <g id="Footer" sketch:type="MSLayerGroup" transform="translate(0.000000, 3688.000000)">
                <g id="Logo" transform="translate(683.000000, 208.000000)">
                    <mask id="mask-2" sketch:name="Clip 2" fill="white">
                        <use xlink:href="#path-1"></use>
                    </mask>
                    <g id="Clip-2"></g>
                    <path d="M53.6037768,32.2272403 C43.2138293,37.284058 41,46 41,46 C41.8988583,36.6914205 51.9643714,31.2080687 51.9643714,31.2080687 C51.7520643,22.3141415 54.5593882,16.3363594 57,14 C57,14 53.0815107,18.7925072 53.6037768,32.2272403" id="Fill-1" fill="#7D7D7D" sketch:type="MSShapeGroup" mask="url(#mask-2)"></path>
                    <path d="M37.4986663,64 L33.7498181,23.4691755 L0,0 L37.4986663,17.0709675 L75,0 L60.5489904,10.2584458 C43.7553145,22.2651808 41.1211788,25.8317672 38.8156129,48.5478188 L37.4986663,64 Z" id="Fill-3" fill="#7D7D7D" sketch:type="MSShapeGroup" mask="url(#mask-2)"></path>
                </g>
            </g>
        </g>
    </g>
</svg>