<?xml version="1.0" encoding="UTF-8" standalone="no"?>
<svg width="321px" height="431px" viewBox="0 0 321 431" version="1.1" xmlns="http://www.w3.org/2000/svg" xmlns:xlink="http://www.w3.org/1999/xlink" xmlns:sketch="http://www.bohemiancoding.com/sketch/ns">
    <!-- Generator: Sketch 3.5.2 (25235) - http://www.bohemiancoding.com/sketch -->
    <title>illustration</title>
    <desc>Created with Sketch.</desc>
    <defs></defs>
    <g id="Final-Mocks" stroke="none" stroke-width="1" fill="none" fill-rule="evenodd" sketch:type="MSPage">
        <g id="Home-Page" sketch:type="MSArtboardGroup" transform="translate(-914.000000, -2197.000000)">
            <g id="illustration" sketch:type="MSLayerGroup" transform="translate(914.000000, 2197.000000)">
                <g id="hand" transform="translate(62.000000, 118.000000)" sketch:type="MSShapeGroup">
                    <path d="M165.5458,200.8996 C142.4818,173.8396 112.5198,138.2756 87.6658,115.1676 C94.4338,99.8696 94.2698,85.2856 101.3458,72.4356 C113.0998,51.0856 122.4578,34.0876 123.0138,18.6476 C123.3298,9.8896 117.0778,1.9496 108.3398,1.2596 C98.9178,0.5136 84.9978,5.2576 84.6658,14.5176 C81.9998,89.1836 -6.6662,90.5156 0.5518,295.4996 C0.5518,304.6136 28.4618,311.9996 62.8918,311.9996 C97.3198,311.9996 125.2318,304.6136 125.2318,295.4996 C126.4858,250.4116 141.2198,231.7876 181.7158,236.9196 C188.0018,237.9876 203.6078,239.7036 215.9498,240.9476 C224.9358,241.8536 232.8598,235.0856 233.3598,226.0696 L233.3598,226.0696 C233.8338,217.5236 227.4238,210.1736 218.8998,209.4156 C193.2358,207.1316 175.0618,203.2896 165.5458,200.8996" id="Fill-1" fill="#FFFFFF"></path>
                    <path d="M165.5458,200.8996 C142.4818,173.8396 112.5198,138.2756 87.6658,115.1676 C94.4338,99.8696 94.2698,85.2856 101.3458,72.4356 C113.0998,51.0856 122.4578,34.0876 123.0138,18.6476 C123.3298,9.8896 117.0778,1.9496 108.3398,1.2596 C98.9178,0.5136 84.9978,5.2576 84.6658,14.5176 C81.9998,89.1836 -6.6662,90.5156 0.5518,295.4996 C0.5518,304.6136 28.4618,311.9996 62.8918,311.9996 C97.3198,311.9996 125.2318,304.6136 125.2318,295.4996 C126.4858,250.4116 141.2198,231.7876 181.7158,236.9196 C188.0018,237.9876 203.6078,239.7036 215.9498,240.9476 C224.9358,241.8536 232.8598,235.0856 233.3598,226.0696 L233.3598,226.0696 C233.8338,217.5236 227.4238,210.1736 218.8998,209.4156 C193.2358,207.1316 175.0618,203.2896 165.5458,200.8996 L165.5458,200.8996 Z" id="Stroke-3" stroke="#545E65" stroke-width="2"></path>
                    <path d="M257.812,151.4266 C257.58,141.4826 249.526,133.4626 239.58,133.3326 C202.104,132.8486 180.94,127.7986 180.738,127.7486 C171.106,125.3506 161.322,131.2006 158.91,140.8466 C156.5,150.4906 162.364,160.2626 172.008,162.6746 C172.994,162.9226 207.95,171.5246 239.63,170.8806 C249.906,170.6726 258.06,162.1786 257.824,151.9046 C257.82,151.7466 257.816,151.5866 257.812,151.4266" id="Fill-5" fill="#FFFFFF"></path>
                    <path d="M257.812,151.4266 C257.58,141.4826 249.526,133.4626 239.58,133.3326 C202.104,132.8486 180.94,127.7986 180.738,127.7486 C171.106,125.3506 161.322,131.2006 158.91,140.8466 C156.5,150.4906 162.364,160.2626 172.008,162.6746 C172.994,162.9226 207.95,171.5246 239.63,170.8806 C249.906,170.6726 258.06,162.1786 257.824,151.9046 C257.82,151.7466 257.816,151.5866 257.812,151.4266 L257.812,151.4266 Z" id="Stroke-7" stroke="#545E65" stroke-width="2"></path>
                    <path d="M250.4786,104.7598 C250.2466,94.8158 242.1926,86.7958 232.2466,86.6658 C194.7706,86.1818 173.6066,81.1318 173.4046,81.0818 C163.7726,78.6838 153.9886,84.5338 151.5766,94.1798 C149.1666,103.8238 155.0306,113.5958 164.6746,116.0078 C165.6606,116.2558 200.6166,124.8578 232.2966,124.2138 C242.5726,124.0058 250.7266,115.5118 250.4906,105.2378 C250.4866,105.0798 250.4826,104.9198 250.4786,104.7598" id="Fill-9" fill="#FFFFFF"></path>
                    <path d="M250.4786,104.7598 C250.2466,94.8158 242.1926,86.7958 232.2466,86.6658 C194.7706,86.1818 173.6066,81.1318 173.4046,81.0818 C163.7726,78.6838 153.9886,84.5338 151.5766,94.1798 C149.1666,103.8238 155.0306,113.5958 164.6746,116.0078 C165.6606,116.2558 200.6166,124.8578 232.2966,124.2138 C242.5726,124.0058 250.7266,115.5118 250.4906,105.2378 C250.4866,105.0798 250.4826,104.9198 250.4786,104.7598 L250.4786,104.7598 Z" id="Stroke-11" stroke="#545E65" stroke-width="2"></path>
                </g>
                <g id="mobile" transform="translate(133.000000, 57.000000)" sketch:type="MSShapeGroup">
                    <path d="M28.707,284.206 C13.267,284.206 0.707,271.646 0.707,256.206 L0.707,28.206 C0.707,12.766 13.267,0.206 28.707,0.206 L136.707,0.206 C152.147,0.206 164.707,12.766 164.707,28.206 L164.707,256.206 C164.707,271.646 152.147,284.206 136.707,284.206 L28.707,284.206 Z" id="Fill-13" fill="#F7F7F7"></path>
                    <path d="M136.707,272.2066 L28.707,272.2066 C19.871,272.2066 12.707,265.0426 12.707,256.2066 L12.707,28.2066 C12.707,19.3706 19.871,12.2066 28.707,12.2066 L136.707,12.2066 C145.543,12.2066 152.707,19.3706 152.707,28.2066 L152.707,256.2066 C152.707,265.0426 145.543,272.2066 136.707,272.2066" id="Fill-15" fill="#F7F7F7"></path>
                    <path d="M136.707,272.2066 L28.707,272.2066 C19.871,272.2066 12.707,265.0426 12.707,256.2066 L12.707,28.2066 C12.707,19.3706 19.871,12.2066 28.707,12.2066 L136.707,12.2066 C145.543,12.2066 152.707,19.3706 152.707,28.2066 L152.707,256.2066 C152.707,265.0426 145.543,272.2066 136.707,272.2066 L136.707,272.2066 Z" id="Stroke-17" stroke="#545E65" stroke-width="4"></path>
                    <path d="M22.708,56.206 L148.708,56.206 L148.708,228.206 L22.708,228.206 L22.708,56.206 Z" id="Fill-19" fill-opacity="0.1" fill="#1F4479"></path>
                    <path d="M148.7066,55.2066 L22.7066,55.2066" id="Stroke-21" stroke="#545E65" stroke-linejoin="bevel"></path>
                    <path d="M148.7066,229.224 L22.7066,229.224" id="Stroke-22" stroke="#545E65" stroke-linejoin="bevel"></path>
                    <path d="M75.7064,257.2618 L89.7084,243.2598" id="Stroke-23" stroke="#545E65" stroke-linejoin="bevel"></path>
                    <path d="M108.708,165.208 L62.708,165.208 L62.708,119.204 L108.708,119.204 L108.708,165.208 Z" id="Fill-24" fill="#F7F7F7"></path>
                </g>
                <g id="finger" transform="translate(98.000000, 224.000000)" sketch:type="MSShapeGroup">
                    <path d="M62,135.8506 C70,104.3506 57.998,79.8346 72.808,60.6346 C78.094,53.7806 86.3,49.7466 98.856,47.7146 C109.968,45.9146 117.976,36.0506 117.736,24.7946 C117.732,24.5726 117.726,24.3486 117.722,24.1246 C117.428,10.4206 105.154,-0.0214 91.608,2.0786 C34.95,10.8686 12.268,43.5806 0.998,73.1686" id="Fill-25" fill="#FFFFFF"></path>
                    <path d="M62,135.8506 C70,104.3506 57.998,79.8346 72.808,60.6346 C78.094,53.7806 86.3,49.7466 98.856,47.7146 C109.968,45.9146 117.976,36.0506 117.736,24.7946 C117.732,24.5726 117.726,24.3486 117.722,24.1246 C117.428,10.4206 105.154,-0.0214 91.608,2.0786 C34.95,10.8686 12.268,43.5806 0.998,73.1686" id="Stroke-26" stroke="#545E65" stroke-width="2"></path>
                </g>
                <path d="M20,149.182 C20,156.914 15.522,163.182 10,163.182 C4.478,163.182 0,156.914 0,149.182 C0,141.45 4.478,135.182 10,135.182 C15.522,135.182 20,141.45 20,149.182" id="Fill-28" fill-opacity="0.2" fill="#F5B31D" sketch:type="MSShapeGroup"></path>
                <path d="M84,49.182 C84,53.822 81.314,57.582 78,57.582 C74.686,57.582 72,53.822 72,49.182 C72,44.542 74.686,40.782 78,40.782 C81.314,40.782 84,44.542 84,49.182" id="Fill-29" fill="#F5B31D" sketch:type="MSShapeGroup"></path>
                <path d="M202,9.182 C202,13.822 199.314,17.582 196,17.582 C192.686,17.582 190,13.822 190,9.182 C190,4.542 192.686,0.782 196,0.782 C199.314,0.782 202,4.542 202,9.182" id="Fill-30" fill-opacity="0.1" fill="#1F4479" sketch:type="MSShapeGroup"></path>
            </g>
        </g>
    </g>
</svg>