<?xml version="1.0" encoding="UTF-8" standalone="no"?>
<svg width="356px" height="425px" viewBox="0 0 356 425" version="1.1" xmlns="http://www.w3.org/2000/svg" xmlns:xlink="http://www.w3.org/1999/xlink" xmlns:sketch="http://www.bohemiancoding.com/sketch/ns">
    <!-- Generator: Sketch 3.5.2 (25235) - http://www.bohemiancoding.com/sketch -->
    <title>illustration</title>
    <desc>Created with Sketch.</desc>
    <defs></defs>
    <g id="Final-Mocks" stroke="none" stroke-width="1" fill="none" fill-rule="evenodd" sketch:type="MSPage">
        <g id="Home-Page" sketch:type="MSArtboardGroup" transform="translate(-170.000000, -1173.000000)">
            <g id="illustration" sketch:type="MSLayerGroup" transform="translate(170.000000, 1174.000000)">
                <path d="M304,266 C304,344.424 240.424,408 162,408 C83.576,408 20,344.424 20,266 C20,187.576 83.576,124 162,124 C240.424,124 304,187.576 304,266" id="base" fill="#FFFFFF" sketch:type="MSShapeGroup"></path>
                <g id="pen" transform="translate(38.000000, 112.000000)" sketch:type="MSShapeGroup">
                    <path d="M21.3222,160 C13.6042,160 7.3222,153.718 7.3222,146 L7.3222,134 C7.3222,128.656 10.3322,124.002 14.7462,121.642 L0.6442,68.77 L37.3282,0.002 L69.3162,0.002 L106.0002,68.77 L91.8982,121.642 C96.3122,124.002 99.3222,128.656 99.3222,134 L99.3222,146 C99.3222,153.718 93.0402,160 85.3222,160 L21.3222,160 Z" id="Fill-5" fill="#F7F7F7"></path>
                    <path d="M63.3182,10.0016 L43.3262,10.0016 L11.3222,69.9996 L27.3242,129.9996 L79.3202,129.9996 L95.3222,69.9996 L63.3182,10.0016 Z" id="Fill-7" fill="#F7F7F7"></path>
                    <path d="M35.934,128 L21.728,74.738 L50.926,20.002 L63.72,20.002 L92.916,74.738 L78.712,128 L35.934,128 Z" id="Fill-9" fill-opacity="0.1" fill="#1F4479"></path>
                    <path d="M53.3222,16.0022 L53.3222,70.0002" id="Stroke-11" stroke="#545E65" stroke-width="2"></path>
                    <path d="M61.3222,70.0006 C61.3222,74.4186 57.7402,78.0006 53.3222,78.0006 C48.9042,78.0006 45.3222,74.4186 45.3222,70.0006 C45.3222,65.5826 48.9042,62.0006 53.3222,62.0006 C57.7402,62.0006 61.3222,65.5826 61.3222,70.0006" id="Fill-13" fill="#545E65"></path>
                    <path d="M85.3222,150 L21.3222,150 C19.1122,150 17.3222,148.21 17.3222,146 L17.3222,134 C17.3222,131.79 19.1122,130 21.3222,130 L85.3222,130 C87.5322,130 89.3222,131.79 89.3222,134 L89.3222,146 C89.3222,148.21 87.5322,150 85.3222,150" id="Fill-15" fill="#F7F7F7"></path>
                    <path d="M25.322,138 L89.322,138 L89.322,150 L25.322,150 L25.322,138 Z" id="Fill-17" fill="#F5B31D"></path>
                    <path d="M63.3182,10.0016 L43.3262,10.0016 L11.3222,69.9996 L27.3242,129.9996 L79.3202,129.9996 L95.3222,69.9996 L63.3182,10.0016 L63.3182,10.0016 Z" id="Stroke-19" stroke="#545E65" stroke-width="2"></path>
                    <path d="M85.3222,150 L21.3222,150 C19.1122,150 17.3222,148.21 17.3222,146 L17.3222,134 C17.3222,131.79 19.1122,130 21.3222,130 L85.3222,130 C87.5322,130 89.3222,131.79 89.3222,134 L89.3222,146 C89.3222,148.21 87.5322,150 85.3222,150 L85.3222,150 Z" id="Stroke-20" stroke="#545E65" stroke-width="2"></path>
                </g>
                <g id="stroke" transform="translate(160.000000, 260.000000)" sketch:type="MSShapeGroup">
                    <path d="M72,72 L20,72 L20,20 L72,20 L72,72 Z M0,92 L92,92 L92,0 L0,0 L0,92 Z" id="Fill-21" fill="#F7F7F7"></path>
                    <path d="M72,72 L20,72 L20,20 L72,20 L72,72 Z M0,92 L92,92 L92,0 L0,0 L0,92 Z" id="Stroke-22" stroke="#545E65" stroke-width="2"></path>
                    <path d="M78,14 L14,14 L14,78 L78,78 L78,14 Z M6,6 L86,6 L86,86 L6,86 L6,6 Z" id="Fill-23" fill="#F5B31D"></path>
                </g>
                <g id="fill" transform="translate(106.000000, 206.000000)" sketch:type="MSShapeGroup">
                    <path d="M0,0 L112,0 L112,112 L0,112 L0,0 Z" id="Fill-24" fill="#F7F7F7"></path>
                    <path d="M102,102 L10,102 L10,10 L102,10 L102,102 Z" id="Fill-25" fill="#F7F7F7"></path>
                    <path d="M102,102 L10,102 L10,10 L102,10 L102,102 Z" id="Stroke-26" stroke="#545E65" stroke-width="2"></path>
                    <path d="M16,16 L96,16 L96,96 L16,96 L16,16 Z" id="Fill-27" fill-opacity="0.2" fill="#F5B31D"></path>
                </g>
                <g id="picker" transform="translate(192.000000, 260.000000)" sketch:type="MSShapeGroup">
                    <path d="M20.6304,164 C15.2864,164 10.2624,161.918 6.4864,158.138 C2.7124,154.368 0.6304,149.344 0.6304,144 C0.6304,139.492 2.1124,135.21 4.8444,131.712 C4.3044,123.174 7.4164,114.792 13.5584,108.644 L70.4844,51.722 C69.0384,49.286 68.2684,46.496 68.2684,43.59 C68.2684,39.312 69.9344,35.292 72.9604,32.274 C75.9784,29.254 79.9964,27.59 84.2684,27.59 C88.5444,27.59 92.5624,29.254 95.5844,32.278 L119.6284,8.234 C124.5344,3.328 131.0624,0.624 138.0124,0.624 C144.9624,0.624 151.4904,3.328 156.3964,8.234 C166.5344,18.372 166.5344,34.866 156.3964,45.002 L132.3524,69.048 C135.3744,72.064 137.0404,76.084 137.0404,80.362 C137.0404,84.634 135.3764,88.652 132.3524,91.674 C129.3384,94.696 125.3184,96.362 121.0404,96.362 C118.1344,96.362 115.3444,95.592 112.9084,94.146 L55.9864,151.07 C50.4164,156.64 42.6724,159.834 34.7464,159.834 C34.1404,159.834 33.5304,159.816 32.9244,159.78 C29.4244,162.516 25.1424,164 20.6304,164" id="Fill-28" fill="#F7F7F7"></path>
                    <path d="M84.2704,52.0758 L20.6304,115.7158 C15.3984,120.9478 13.6904,128.3518 15.4664,135.0218 L13.5604,136.9278 C9.6544,140.8338 9.6544,147.1658 13.5604,151.0718 C17.4644,154.9758 23.7964,154.9758 27.7024,151.0718 L29.6084,149.1638 C36.2784,150.9398 43.6844,149.2318 48.9144,143.9998 L112.5544,80.3598 L84.2704,52.0758 Z" id="Fill-29" fill="#F7F7F7"></path>
                    <path d="M16.3882,153.8996 C14.0482,151.5596 14.0482,147.7536 16.3882,145.4136 L19.9262,141.8756 L19.3322,139.6476 C17.8622,134.1356 19.4442,128.2156 23.4602,124.2016 L84.2702,63.3896 L106.8982,86.0176 L46.0862,146.8276 C42.0722,150.8436 36.1522,152.4256 30.6402,150.9556 L28.4122,150.3616 L24.8742,153.8996 C22.5342,156.2396 18.7282,156.2396 16.3882,153.8996" id="Fill-30" fill-opacity="0.1" fill="#1F4479"></path>
                    <path d="M125.2832,76.1188 L118.2112,69.0468 L149.3252,37.9328 C155.5732,31.6848 155.5732,21.5528 149.3252,15.3048 C143.0772,9.0568 132.9472,9.0568 126.6992,15.3048 L95.5832,46.4188 L88.5112,39.3468 C86.1692,37.0048 82.3692,37.0048 80.0272,39.3468 C77.6832,41.6908 77.6832,45.4888 80.0272,47.8328 L116.7992,84.6028 C119.1412,86.9468 122.9392,86.9468 125.2832,84.6028 C127.6252,82.2608 127.6252,78.4608 125.2832,76.1188" id="Fill-31" fill="#F7F7F7"></path>
                    <path d="M84.2692,49.2464 C83.4912,48.4684 83.4912,47.2004 84.2712,46.4184 C85.0512,45.6384 86.3192,45.6384 87.0972,46.4184 L96.9992,56.3184 L130.9412,22.3764 C135.6192,17.6964 143.2332,17.6964 147.9112,22.3764 C152.5912,27.0564 152.5912,34.6684 147.9112,39.3464 L113.9692,73.2904 L123.8692,83.1904 C124.6492,83.9684 124.6492,85.2364 123.8692,86.0164 C123.0892,86.7984 121.8212,86.7984 121.0412,86.0184 L84.2692,49.2464 Z" id="Fill-32" fill="#1F4479"></path>
                    <path d="M118.2106,69.0464 L106.8986,57.7344" id="Stroke-33" stroke="#545E65" stroke-width="2"></path>
                    <path d="M84.2704,52.0758 L20.6304,115.7158 C15.3984,120.9478 13.6904,128.3518 15.4664,135.0218 L13.5604,136.9278 C9.6544,140.8338 9.6544,147.1658 13.5604,151.0718 C17.4644,154.9758 23.7964,154.9758 27.7024,151.0718 L29.6084,149.1638 C36.2784,150.9398 43.6844,149.2318 48.9144,143.9998 L112.5544,80.3598 L84.2704,52.0758 L84.2704,52.0758 Z" id="Stroke-34" stroke="#545E65" stroke-width="2"></path>
                    <path d="M118.2112,69.0468 L149.3252,37.9328 C155.5732,31.6848 155.5732,21.5528 149.3252,15.3048 C143.0772,9.0568 132.9472,9.0568 126.6992,15.3048 L95.5832,46.4188 L88.5112,39.3468 C86.1692,37.0048 82.3692,37.0048 80.0272,39.3468 C77.6832,41.6908 77.6832,45.4888 80.0272,47.8328 L116.7992,84.6028 C119.1412,86.9468 122.9392,86.9468 125.2832,84.6028 C127.6252,82.2608 127.6252,78.4608 125.2832,76.1188 L118.2112,69.0468 Z" id="Stroke-35" stroke="#1F4479" stroke-width="2"></path>
                </g>
                <g id="T" transform="translate(240.000000, 124.000000)" sketch:type="MSShapeGroup">
                    <path d="M8.3222,58 L8.5422,35.7 L14.6982,35.7 L14.6982,30.7 L0.0002,30.7 L0.0002,0 L58.0002,0 L58.0002,30.78 L43.2982,30.632 L43.2982,35.7 L49.5982,35.7 L49.5982,58 L8.3222,58 Z" id="Fill-36" fill="#F7F7F7"></path>
                    <path d="M14.2996,22.7 C14.2996,19.192 17.0916,16.4 20.5376,16.4 L22.6996,16.4 L22.6996,37.464 C22.6996,40.908 19.9076,43.7 16.4656,43.7 L16.4016,50 L41.5976,50 L41.5976,43.7 C38.0916,43.7 35.2976,40.908 35.2976,37.464 L35.2976,16.4 L37.4636,16.4 C40.9076,16.4 43.6976,19.192 43.6976,22.636 L49.9996,22.7 L49.9996,8 L7.9996,8 L7.9996,22.7 L14.2996,22.7 Z" id="Fill-37" fill="#1F4479"></path>
                </g>
                <g id="square" transform="translate(0.000000, 322.000000)" sketch:type="MSShapeGroup">
                    <path d="M76,100 C70.426,100 65.604,96.726 63.352,92 L38.648,92 C36.396,96.726 31.574,100 26,100 L14,100 C6.282,100 0,93.718 0,86 L0,74 C0,68.426 3.274,63.604 8,61.352 L8,38.648 C3.274,36.396 0,31.574 0,26 L0,14 C0,6.282 6.282,0 14,0 L26,0 C31.574,0 36.396,3.274 38.648,8 L63.352,8 C65.604,3.274 70.426,0 76,0 L88,0 C95.718,0 102,6.282 102,14 L102,26 C102,31.574 98.726,36.396 94,38.648 L94,61.352 C98.726,63.604 102,68.426 102,74 L102,86 C102,93.718 95.718,100 88,100 L76,100 Z" id="Fill-3" fill="#F7F7F7"></path>
                    <path d="M72,20 L28.002,20" id="Stroke-38" stroke="#545E65" stroke-width="4"></path>
                    <path d="M82,70 L82,30" id="Stroke-39" stroke="#545E65" stroke-width="4"></path>
                    <path d="M32.001,80 L71.999,80" id="Stroke-40" stroke="#545E65" stroke-width="4"></path>
                    <path d="M20,30 L20,70" id="Stroke-41" stroke="#545E65" stroke-width="4"></path>
                    <path d="M88,70 L76,70 C73.79,70 72,71.79 72,74 L72,86 C72,88.21 73.79,90 76,90 L88,90 C90.21,90 92,88.21 92,86 L92,74 C92,71.79 90.21,70 88,70 M26,70 L14,70 C11.79,70 10,71.79 10,74 L10,86 C10,88.21 11.79,90 14,90 L26,90 C28.21,90 30,88.21 30,86 L30,74 C30,71.79 28.21,70 26,70 M88,10 L76,10 C73.79,10 72,11.79 72,14 L72,26 C72,28.21 73.79,30 76,30 L88,30 C90.21,30 92,28.21 92,26 L92,14 C92,11.79 90.21,10 88,10 M26,30 L14,30 C11.79,30 10,28.21 10,26 L10,14 C10,11.79 11.79,10 14,10 L26,10 C28.21,10 30,11.79 30,14 L30,26 C30,28.21 28.21,30 26,30" id="Fill-42" fill-opacity="0.1" fill="#1F4479"></path>
                    <path d="M88,70 L76,70 C73.79,70 72,71.79 72,74 L72,86 C72,88.21 73.79,90 76,90 L88,90 C90.21,90 92,88.21 92,86 L92,74 C92,71.79 90.21,70 88,70 L88,70 Z M26,70 L14,70 C11.79,70 10,71.79 10,74 L10,86 C10,88.21 11.79,90 14,90 L26,90 C28.21,90 30,88.21 30,86 L30,74 C30,71.79 28.21,70 26,70 L26,70 Z M88,10 L76,10 C73.79,10 72,11.79 72,14 L72,26 C72,28.21 73.79,30 76,30 L88,30 C90.21,30 92,28.21 92,26 L92,14 C92,11.79 90.21,10 88,10 L88,10 Z M26,30 L14,30 C11.79,30 10,28.21 10,26 L10,14 C10,11.79 11.79,10 14,10 L26,10 C28.21,10 30,11.79 30,14 L30,26 C30,28.21 28.21,30 26,30 L26,30 Z" id="Stroke-43" stroke="#545E65" stroke-width="2"></path>
                </g>
                <g id="decor" transform="translate(26.000000, 0.000000)" stroke-width="4" sketch:type="MSShapeGroup">
                    <path d="M210,76 L192.5,93.5" id="Stroke-44" stroke="#1F4479"></path>
                    <path d="M112,0.5 L129.5,18" id="Stroke-45" stroke="#1F4479" opacity="0.1"></path>
                    <path d="M18,76 L0.5,93.5" id="Stroke-46" stroke="#F5B31D"></path>
                    <path d="M0.5,76 L18,93.5" id="Stroke-47" stroke="#F5B31D"></path>
                </g>
            </g>
        </g>
    </g>
</svg>