<?xml version="1.0" encoding="UTF-8" standalone="no"?>
<svg width="324px" height="458px" viewBox="0 0 324 458" version="1.1" xmlns="http://www.w3.org/2000/svg" xmlns:xlink="http://www.w3.org/1999/xlink" xmlns:sketch="http://www.bohemiancoding.com/sketch/ns">
    <!-- Generator: Sketch 3.5.2 (25235) - http://www.bohemiancoding.com/sketch -->
    <title>illustration</title>
    <desc>Created with Sketch.</desc>
    <defs>
        <path id="path-1" d="M0,0.444 L324,0.444 L324,458 L0,458"></path>
    </defs>
    <g id="Final-Mocks" stroke="none" stroke-width="1" fill="none" fill-rule="evenodd" sketch:type="MSPage">
        <g id="Home-Page" sketch:type="MSArtboardGroup" transform="translate(-202.000000, -3216.000000)">
            <g id="illustration" sketch:type="MSLayerGroup" transform="translate(202.000000, 3216.000000)">
                <g id="Group-3">
                    <mask id="mask-2" sketch:name="Clip 2" fill="white">
                        <use xlink:href="#path-1"></use>
                    </mask>
                    <g id="Clip-2"></g>
                    <path d="M324.0002,241.9942 C324.0002,319.3142 261.3202,381.9942 184.0002,381.9942 C106.6802,381.9942 44.0002,319.3142 44.0002,241.9942 C44.0002,164.6742 106.6802,101.9942 184.0002,101.9942 C261.3202,101.9942 324.0002,164.6742 324.0002,241.9942" id="Fill-1" fill-opacity="0.2" fill="#F5B31D" sketch:type="MSShapeGroup" mask="url(#mask-2)"></path>
                </g>
                <path d="M184.0002,458 C170.0582,458 158.1242,449.602 154.8902,438.208 C147.9202,433.488 144.0002,427.008 144.0002,419.998 C144.0002,417.958 144.3342,415.952 144.9982,413.998 C144.3342,412.042 144.0002,410.038 144.0002,407.996 C144.0002,405.956 144.3342,403.95 144.9982,401.996 C144.3342,400.042 144.0002,398.038 144.0002,395.996 C144.0002,395.368 144.0342,394.738 144.1002,394.11 C137.5522,387.198 134.0002,378.79 134.0002,369.994 L134.0002,359.932 C134.0002,346.77 128.9422,334.368 119.7542,325.006 C101.9942,306.91 92.6642,281.968 94.1602,256.58 C96.8042,211.664 132.6242,175.404 177.4802,172.236 C179.6822,172.08 181.9182,172 184.1182,172 C206.8862,172 228.6282,180.574 245.3402,196.144 C263.5542,213.116 274.0002,237.12 274.0002,262.004 C274.0002,285.778 264.8062,308.2 248.1122,325.14 C239.0122,334.376 234.0002,346.736 234.0002,359.94 L234.0002,369.994 C234.0002,378.79 230.4482,387.198 223.9002,394.11 C223.9662,394.738 224.0002,395.368 224.0002,395.996 C224.0002,398.038 223.6662,400.042 223.0022,401.996 C223.6662,403.95 224.0002,405.956 224.0002,407.996 C224.0002,410.038 223.6662,412.042 223.0022,413.998 C223.6662,415.952 224.0002,417.958 224.0002,419.998 C224.0002,427.008 220.0802,433.488 213.1102,438.208 C209.8762,449.602 197.9422,458 184.0002,458" id="Fill-4" fill="#F7F7F7" sketch:type="MSShapeGroup"></path>
                <path d="M280.001,113.9312 L250.001,113.9312 L250.001,73.5892 L220.001,134.6232 L250.001,134.6232 L250.001,174.9652 L280.001,113.9312 Z" id="Fill-6" fill="#1F4479" sketch:type="MSShapeGroup"></path>
                <path d="M151.6672,25.9954 L132.6672,25.9954 L132.6672,0.4454 L113.6672,39.1014 L132.6672,39.1014 L132.6672,64.6514 L151.6672,25.9954 Z" id="Fill-8" fill="#F5B31D" sketch:type="MSShapeGroup"></path>
                <path d="M184.0002,415.9994 C172.9542,415.9994 164.0002,423.1634 164.0002,431.9994 C164.0002,440.8354 172.9542,447.9994 184.0002,447.9994 C195.0462,447.9994 204.0002,440.8354 204.0002,431.9994 C204.0002,423.1634 195.0462,415.9994 184.0002,415.9994" id="Fill-10" fill="#DDE0E2" sketch:type="MSShapeGroup"></path>
                <path d="M184.0002,415.9994 C172.9542,415.9994 164.0002,423.1634 164.0002,431.9994 C164.0002,440.8354 172.9542,447.9994 184.0002,447.9994 C195.0462,447.9994 204.0002,440.8354 204.0002,431.9994 C204.0002,423.1634 195.0462,415.9994 184.0002,415.9994 L184.0002,415.9994 Z" id="Stroke-12" stroke="#545E65" stroke-width="2" sketch:type="MSShapeGroup"></path>
                <path d="M184.0002,403.9982 C167.4322,403.9982 154.0002,411.1622 154.0002,419.9982 C154.0002,428.8342 167.4322,435.9982 184.0002,435.9982 C200.5682,435.9982 214.0002,428.8342 214.0002,419.9982 C214.0002,411.1622 200.5682,403.9982 184.0002,403.9982" id="Fill-14" fill="#DDE0E2" sketch:type="MSShapeGroup"></path>
                <path d="M184.0002,403.9982 C167.4322,403.9982 154.0002,411.1622 154.0002,419.9982 C154.0002,428.8342 167.4322,435.9982 184.0002,435.9982 C200.5682,435.9982 214.0002,428.8342 214.0002,419.9982 C214.0002,411.1622 200.5682,403.9982 184.0002,403.9982 L184.0002,403.9982 Z" id="Stroke-16" stroke="#545E65" stroke-width="2" sketch:type="MSShapeGroup"></path>
                <path d="M184.0002,391.997 C167.4322,391.997 154.0002,399.161 154.0002,407.997 C154.0002,416.833 167.4322,423.997 184.0002,423.997 C200.5682,423.997 214.0002,416.833 214.0002,407.997 C214.0002,399.161 200.5682,391.997 184.0002,391.997" id="Fill-18" fill="#DDE0E2" sketch:type="MSShapeGroup"></path>
                <path d="M184.0002,391.997 C167.4322,391.997 154.0002,399.161 154.0002,407.997 C154.0002,416.833 167.4322,423.997 184.0002,423.997 C200.5682,423.997 214.0002,416.833 214.0002,407.997 C214.0002,399.161 200.5682,391.997 184.0002,391.997 L184.0002,391.997 Z" id="Stroke-20" stroke="#545E65" stroke-width="2" sketch:type="MSShapeGroup"></path>
                <path d="M184.0002,379.9958 C167.4322,379.9958 154.0002,387.1598 154.0002,395.9958 C154.0002,404.8318 167.4322,411.9958 184.0002,411.9958 C200.5682,411.9958 214.0002,404.8318 214.0002,395.9958 C214.0002,387.1598 200.5682,379.9958 184.0002,379.9958" id="Fill-22" fill="#DDE0E2" sketch:type="MSShapeGroup"></path>
                <path d="M184.0002,379.9958 C167.4322,379.9958 154.0002,387.1598 154.0002,395.9958 C154.0002,404.8318 167.4322,411.9958 184.0002,411.9958 C200.5682,411.9958 214.0002,404.8318 214.0002,395.9958 C214.0002,387.1598 200.5682,379.9958 184.0002,379.9958 L184.0002,379.9958 Z" id="Stroke-24" stroke="#545E65" stroke-width="2" sketch:type="MSShapeGroup"></path>
                <path d="M264.0002,262.0042 C264.0002,215.8982 224.9962,178.9002 178.1842,182.2102 C138.4562,185.0182 106.4822,217.4102 104.1422,257.1682 C102.7462,280.8842 111.6962,302.5162 126.8922,318.0022 C137.8742,329.1902 144.0002,344.2542 144.0002,359.9322 L144.0002,369.9942 C144.0002,386.5622 161.9082,399.9942 184.0002,399.9942 C206.0922,399.9942 224.0002,386.5622 224.0002,369.9942 L224.0002,359.9402 C224.0002,344.3182 230.0262,329.2462 240.9902,318.1202 C255.2182,303.6842 264.0002,283.8742 264.0002,262.0042" id="Fill-26" fill="#F7F7F7" sketch:type="MSShapeGroup"></path>
                <path d="M188.0002,397.9954 C169.2522,397.9954 154.0002,387.2294 154.0002,373.9954 L154.0002,363.9334 C154.0002,346.5534 147.3142,330.1714 135.1762,317.7994 C120.5722,302.9214 112.9022,282.4074 114.1302,261.5194 C116.3042,224.6034 145.7422,194.7994 182.6062,192.1954 C184.3822,192.0694 186.1982,192.0054 188.0002,192.0054 C228.8042,192.0054 262.0002,225.2014 262.0002,266.0034 C262.0002,285.5474 254.4422,303.9814 240.7162,317.9074 C228.6462,330.1594 222.0002,346.5054 222.0002,363.9394 L222.0002,373.9954 C222.0002,387.2294 206.7482,397.9954 188.0002,397.9954" id="Fill-28" fill-opacity="0.2" fill="#F5B31D" sketch:type="MSShapeGroup"></path>
                <path d="M158.0002,379.9942 C158.0002,371.1582 169.6402,363.9942 184.0002,363.9942 C198.3602,363.9942 210.0002,371.1582 210.0002,379.9942" id="Stroke-30" stroke="#545E65" stroke-width="2" sketch:type="MSShapeGroup"></path>
                <path d="M206.001,271.9974 L206.001,271.9974 C198.269,271.9974 192.001,278.2654 192.001,285.9974 L192.001,299.9974 L206.001,299.9974 C213.733,299.9974 220.001,293.7294 220.001,285.9974 L220.001,285.9974 C220.001,278.2654 213.733,271.9974 206.001,271.9974 L206.001,271.9974 Z" id="Stroke-32" stroke="#545E65" stroke-width="2" sketch:type="MSShapeGroup"></path>
                <path d="M161.9994,271.9974 L161.9994,271.9974 C169.7314,271.9974 175.9994,278.2654 175.9994,285.9974 L175.9994,299.9974 L161.9994,299.9974 C154.2674,299.9974 147.9994,293.7294 147.9994,285.9974 L147.9994,285.9974 C147.9994,278.2654 154.2674,271.9974 161.9994,271.9974 L161.9994,271.9974 Z" id="Stroke-34" stroke="#545E65" stroke-width="2" sketch:type="MSShapeGroup"></path>
                <path d="M192.001,379.9954 L192.001,299.9974 L175.999,299.9974 L175.999,379.9954" id="Stroke-36" stroke="#545E65" stroke-width="2" sketch:type="MSShapeGroup"></path>
                <path d="M264.0002,262.0042 C264.0002,215.8982 224.9962,178.9002 178.1842,182.2102 C138.4562,185.0182 106.4822,217.4102 104.1422,257.1682 C102.7462,280.8842 111.6962,302.5162 126.8922,318.0022 C137.8742,329.1902 144.0002,344.2542 144.0002,359.9322 L144.0002,369.9942 C144.0002,386.5622 161.9082,399.9942 184.0002,399.9942 C206.0922,399.9942 224.0002,386.5622 224.0002,369.9942 L224.0002,359.9402 C224.0002,344.3182 230.0262,329.2462 240.9902,318.1202 C255.2182,303.6842 264.0002,283.8742 264.0002,262.0042 L264.0002,262.0042 Z" id="Stroke-38" stroke="#545E65" stroke-width="2" sketch:type="MSShapeGroup"></path>
                <path d="M68.002,355.9994 C67.252,355.9994 66.492,355.9154 65.736,355.7394 C61.206,354.6874 58,350.6494 58,345.9994 L58,278.0034 L10,278.0034 C6.546,278.0034 3.338,276.2214 1.512,273.2894 C-0.314,270.3594 -0.498,266.6914 1.026,263.5914 L59.026,145.5914 C60.734,142.1154 64.252,140.0034 67.998,140.0034 C68.748,140.0034 69.508,140.0874 70.264,140.2634 C74.794,141.3154 78,145.3534 78,150.0034 L78,217.9994 L126,217.9994 C129.454,217.9994 132.662,219.7814 134.488,222.7114 C136.314,225.6434 136.498,229.3114 134.974,232.4114 L76.974,350.4114 C75.266,353.8874 71.748,355.9994 68.002,355.9994" id="Fill-40" fill="#F7F7F7" sketch:type="MSShapeGroup"></path>
                <path d="M78.0006,266.0036 L23.6346,266.0036 L66.0006,179.8116 L66.0006,237.9996 L120.3666,237.9996 L78.0006,324.1916 L78.0006,266.0036 Z" id="Fill-42" fill-opacity="0.1" fill="#1F4479" sketch:type="MSShapeGroup"></path>
                <path d="M126.0002,227.9994 L68.0002,227.9994 L68.0002,150.0034 L10.0002,268.0034 L68.0002,268.0034 L68.0002,345.9994 L126.0002,227.9994 L126.0002,227.9994 Z" id="Stroke-44" stroke="#545E65" stroke-width="2" sketch:type="MSShapeGroup"></path>
            </g>
        </g>
    </g>
</svg>